<svg xmlns="http://www.w3.org/2000/svg" width="164" height="164" viewBox="-31.16 -31.16 226.32 226.32"><path fill="#faf6ff" d="M82.6 78.1l-102.24 31.02.02 50.86 102.24 30.94 102.6-31.57.23-50.7z"/><path fill="#e8d2ff" d="M175.13 125.47L93.3 150.93l-.33 25.47 81.84-25.47.33-25.46zM145.5 140.2l-.16 15.38-4.5 1.28v-15.22l4.66-1.44zm-8.5 2.9v15.2l-4.63 1.28.16-15.2 4.48-1.3zm-8.16 2.55l-.16 15.2-4.48 1.3.16-15.22 4.48-1.28zm-8.5 2.56v15.38l-4.63 1.3.17-15.23 4.48-1.44zm-8.63 2.73v15.22l-4.64 1.28.16-15.22 4.5-1.27zm-8.64 2.4l-.16 15.38-4.5 1.3V154.8l4.66-1.44z"/><path fill="#fff" fill-opacity=".53" d="M15.336 112.222L.293 117.109v45.814l6.75 2.062v-45.72l15.166-4.952zm18.875 5.78l-15.637 4.893v45.622l6.72 1.94v-45.47h.03l15.792-4.89z"/><path fill="none" stroke="#e8d2ff" stroke-width="4.3" stroke-linecap="round" stroke-linejoin="round" d="M-19.6 111.16L82.6 143.6l102.87-31.54M82.64 143.73l-.04 47.86"/><path fill="#c086ff" color="#000" d="M82.2 74.2a3.86 3.86 0 0 0-.8.17l-102.18 31.07a3.86 3.86 0 0 0-2.72 3.7v50.92a3.86 3.86 0 0 0 2.72 3.68l102.34 30.9a3.86 3.86 0 0 0 2.24 0l102.5-31.54a3.86 3.86 0 0 0 2.72-3.7l.32-50.75a3.86 3.86 0 0 0-2.72-3.7L83.64 74.38a3.86 3.86 0 0 0-1.44-.16zm.48 7.86l98.97 29.47-.32 45-98.65 30.43-98.5-29.95v-45l98.5-29.94z"/><path d="M81.8-25L5-1.6v107.4L81.8 129l77-23.8L159-2z" fill="#faf6ff"/><path fill="none" stroke="#e8d2ff" stroke-width="4.3" stroke-linecap="round" stroke-linejoin="round" d="M5 1l77 24.3m0 0L159 .6M81.8 25.2v102"/><path fill="#e8d2ff" d="M54.78-14.66l76.8 23.2v27.5l-20.6 6.7v-27.4l-77-23.6 20.8-6.7z"/><g><path fill="#fff" d="M113.463 49.673l-21.708 6.921.203 21.959 21.707-6.94zm-5.853 8.385l.091 9.93-8.946 2.642-.091-9.92zm42.077-19.367l-20.443 6.269.203 21.959 20.443-6.29-.203-21.928zm-5.683 8.382l.092 9.93-8.946 2.633-.092-9.92 8.946-2.653z"/><path fill="#e8d2ff" d="M140.687 90.089l-32.583 10.584v5.3l32.563-10.574zM126.94 74.51l-8.8 2.73.02 9.68 8.65-2.55z"/><path fill="#fff" fill-opacity=".53" d="M26.98 18.6c-2.54.34-4.33 2.48-4.33 5.46 0 2.63 1.4 5.17 3.53 7.05v79.78l7.2 2.08c-.03-8.14-.04-28.92 0-34.28 1.06-.96 4.33-.24 7.2-.32 12.4-.32 20.2-12.84 20.2-20.02v-.96c2.1-.6 3.67-2.5 3.67-5.12 0-3.98-3.23-8.1-7.2-9.3v.17c-4-1.2-7.22.82-7.22 4.8 0 2.64 1.4 5.5 3.52 7.37v.95c0 3.6-1.23 12.06-12.97 15.06-3.02.78-5.37-.9-7.22-.46v-37.5c2.13-.6 3.53-2.32 3.53-4.96 0-3.98-3.23-8.24-7.2-9.44-1-.3-1.88-.43-2.73-.33zm1.28 3.7c.42-.07.95 0 1.44.16 1.96.6 3.68 2.84 3.68 4.8 0 1.97-1.72 3-3.68 2.4-1.96-.6-3.52-2.68-3.52-4.64 0-1.47.8-2.53 2.08-2.72zm27.56 24.18c.42-.04.94 0 1.43.16 1.96.6 3.52 2.52 3.52 4.5 0 1.95-1.56 3.3-3.52 2.7-1.96-.58-3.7-2.83-3.7-4.8 0-1.47.94-2.42 2.26-2.56zM45.24 86.04c-2.55.33-4.33 2.46-4.33 5.45 0 2.6 1.4 5.15 3.55 7.02v17.78l7.2 2.25v-17.77c2.13-.6 3.53-2.33 3.53-4.97 0-3.96-3.23-8.23-7.2-9.43-1-.3-1.9-.43-2.73-.32zm1.28 3.7c.42-.08.95 0 1.44.15 1.96.57 3.68 2.82 3.68 4.8 0 1.94-1.72 3-3.68 2.4-1.96-.6-3.52-2.7-3.52-4.66 0-1.47.8-2.53 2.08-2.73z"/></g><path fill="#c086ff" color="#000" d="M81.2-29.96a5.05 5.04 0 0 0-.96.16L3.52-6.43A5.05 5.04 0 0 0 0-1.63v107.25a5.05 5.04 0 0 0 3.68 4.96l76.72 23.2a5.05 5.04 0 0 0 2.88 0l77.04-23.68a5.05 5.04 0 0 0 3.52-4.8L164-1.95a5.05 5.04 0 0 0-3.7-4.96l-77-22.89a5.05 5.04 0 0 0-2.1-.16zm.64 10.4l72.07 21.3-.13 99.72-72.07 22.1-71.6-21.62V2.06l71.75-21.6z"/></svg>