<svg xmlns="http://www.w3.org/2000/svg" width="164" height="164" viewBox="0 0 164 164"><path d="M81.8 5L5 28.4v107.4L81.8 159l77-23.8L159 28z" fill="#fff"/><path fill="none" stroke="#fff" stroke-width="4.3" stroke-linecap="round" stroke-linejoin="round" d="M5 31l77 24.3m0 0l77-24.7M81.8 55.2v102"/><path fill="#fff" d="M54.78 15.34l76.8 23.2v27.5l-20.6 6.7v-27.4l-77-23.6 20.8-6.7z"/><g fill="#fff"><path d="M149.353 66.703L93.126 85.582l.094 22.43 56.104-19.125zm-5.488 8.512l.074 10.17-8.712 2.863-.074-10.16 8.712-2.863zm-34.841 11.284l-.047 9.945-8.713 2.843.048-9.905 8.713-2.853zM135.72 116.9l-26.43 7.85v11.05l26.42-7.85zM128.83 106.17l-14.58 4.48.03 4.87 14.4-4.32z"/><path fill-opacity=".53" d="M39.6 71.72c-2.53.33-4.3 2.46-4.3 5.45 0 2.63 1.38 5.17 3.5 7.05v27.7c-1.1-.57-2.3-1.03-3.67-1.44-3.6-1.08-7.2-5.7-7.2-9.3v-.95c2.12-.6 3.67-2.5 3.67-5.12 0-3.97-3.22-8.24-7.2-9.44-3.98-1.2-7.2 1.14-7.2 5.12 0 2.64 1.54 5.17 3.67 7.05v.96c0 7.16 7.08 16.56 14.26 18.73 1.2.36 2.48.9 3.68 1.6v24.18l7.22 2.26c-.03-8.14-.04-28.92 0-34.28 1.06-.97 4.46-1.15 7.2-.32 7.18 2.17 14.26-2.75 14.26-9.93v-.96c2.13-.6 3.68-2.5 3.68-5.12 0-3.98-3.22-8.1-7.2-9.3v.17c-3.98-1.2-7.2.82-7.2 4.8 0 2.64 1.38 5.5 3.5 7.37v.95c0 3.6-3.45 6.05-7.03 4.96-2.98-.88-5.36-.92-7.2-.47V86.46c2.12-.6 3.5-2.33 3.5-4.97 0-4-3.22-8.25-7.2-9.46-1-.3-1.87-.43-2.72-.32zm1.3 3.7c.42-.08.94 0 1.43.15 1.97.6 3.7 2.84 3.7 4.8s-1.73 3-3.7 2.4c-1.96-.6-3.52-2.68-3.52-4.64 0-1.47.83-2.53 2.1-2.72zM22.95 89.17c.42-.05.95 0 1.44.16 1.96.6 3.52 2.68 3.52 4.64 0 1.97-1.56 3-3.52 2.4-1.97-.6-3.53-2.68-3.53-4.64 0-1.47.82-2.4 2.1-2.56zm39.55 0c.45-.05.97 0 1.46.16 1.96.6 3.52 2.52 3.52 4.48 0 1.97-1.56 3.32-3.52 2.73-1.97-.6-3.7-2.85-3.7-4.8 0-1.48.94-2.44 2.25-2.57z"/></g><path fill="#fff" color="#000" d="M81.2.04a5.05 5.04 0 0 0-.96.16L3.52 23.57A5.05 5.04 0 0 0 0 28.37v107.25a5.05 5.04 0 0 0 3.68 4.96l76.72 23.2a5.05 5.04 0 0 0 2.88 0l77.04-23.68a5.05 5.04 0 0 0 3.52-4.8L164 28.05a5.05 5.04 0 0 0-3.7-4.96L83.3.2a5.05 5.04 0 0 0-2.1-.16zm.64 10.4l72.07 21.3-.13 99.72-72.07 22.1-71.6-21.62V32.06l71.75-21.6z"/></svg>