<svg xmlns="http://www.w3.org/2000/svg" width="164" height="164" viewBox="0 0 164 164"><path d="M81.8 5L5 28.4v107.4L81.8 159l77-23.8L159 28z" fill="gray"/><path fill="none" stroke="#262626" stroke-width="4.3" stroke-linecap="round" stroke-linejoin="round" d="M5 31l77 24.3m0 0l77-24.7M81.8 55.2v102"/><path fill="#262626" d="M54.78 15.34l76.8 23.2v27.5l-20.6 6.7v-27.4l-77-23.6 20.8-6.7z"/><path fill="#fff" d="M113.463 79.673l-21.708 6.921.203 21.959 21.707-6.94zm-5.853 8.385l.091 9.93-8.946 2.642-.091-9.92zm42.077-19.367l-20.443 6.269.203 21.959 20.443-6.29-.203-21.928zm-5.683 8.382l.092 9.93-8.946 2.633-.092-9.92 8.946-2.653z"/><path fill="#262626" d="M140.687 120.089l-32.583 10.584v5.3l32.563-10.574zM126.94 104.51l-8.8 2.73.02 9.68 8.65-2.55z"/><path fill="#fff" fill-opacity=".53" d="M26.98 48.6c-2.54.34-4.33 2.48-4.33 5.46 0 2.63 1.4 5.17 3.53 7.05v79.78l7.2 2.08c-.03-8.14-.04-28.92 0-34.28 1.06-.96 4.33-.24 7.2-.32 12.4-.32 20.2-12.84 20.2-20.02v-.96c2.1-.6 3.67-2.5 3.67-5.12 0-3.98-3.23-8.1-7.2-9.3v.17c-4-1.2-7.22.82-7.22 4.8 0 2.64 1.4 5.5 3.52 7.37v.95c0 3.6-1.23 12.06-12.97 15.06-3.02.78-5.37-.9-7.22-.46v-37.5c2.13-.6 3.53-2.32 3.53-4.96 0-3.98-3.23-8.24-7.2-9.44-1-.3-1.88-.43-2.73-.33zm1.28 3.7c.42-.07.95 0 1.44.16 1.96.6 3.68 2.84 3.68 4.8 0 1.97-1.72 3-3.68 2.4-1.96-.6-3.52-2.68-3.52-4.64 0-1.47.8-2.53 2.08-2.72zm27.56 24.18c.42-.04.94 0 1.43.16 1.96.6 3.52 2.52 3.52 4.5 0 1.95-1.56 3.3-3.52 2.7-1.96-.58-3.7-2.83-3.7-4.8 0-1.47.94-2.42 2.26-2.56zm-10.58 39.56c-2.55.33-4.33 2.46-4.33 5.45 0 2.6 1.4 5.15 3.55 7.02v17.78l7.2 2.25v-17.77c2.13-.6 3.53-2.33 3.53-4.97 0-3.96-3.23-8.23-7.2-9.43-1-.3-1.9-.43-2.73-.32zm1.28 3.7c.42-.08.95 0 1.44.15 1.96.57 3.68 2.82 3.68 4.8 0 1.94-1.72 3-3.68 2.4-1.96-.6-3.52-2.7-3.52-4.66 0-1.47.8-2.53 2.08-2.73z"/><path color="#000" d="M81.2.04a5.05 5.04 0 0 0-.96.16L3.52 23.57A5.05 5.04 0 0 0 0 28.37v107.25a5.05 5.04 0 0 0 3.68 4.96l76.72 23.2a5.05 5.04 0 0 0 2.88 0l77.04-23.68a5.05 5.04 0 0 0 3.52-4.8L164 28.05a5.05 5.04 0 0 0-3.7-4.96L83.3.2a5.05 5.04 0 0 0-2.1-.16zm.64 10.4l72.07 21.3-.13 99.72-72.07 22.1-71.6-21.62V32.06l71.75-21.6z"/></svg>