<svg xmlns="http://www.w3.org/2000/svg" width="164" height="164" viewBox="0 0 164 164"><path fill="#ebbf8d" d="M72 49.5L21.8 64.2v68L72 146.7v.2l50.4-15V64L72 49.5z"/><path fill="#fece99" d="M21.8 64.2L72 79v67.9l-50.2-14.7z"/><path fill="#ffd3a3" d="M72 79l50.5-15L72 49.5 21.8 64.2z"/><path fill-opacity=".2" fill="#494949" d="M122.4 131.853v-21.9l15.7 4.6v.2l-3.5 4-11.8 12.9-.3.2"/><path fill="#f7f7f7" fill-opacity=".4" d="M52 55.3l-10 3L92.2 73v17.3l10-3V70L52 55.3z"/><path fill="#f0b97d" d="M72 79l50.5-15L72 49.5z"/><path fill="#deab73" d="M72 79V49.5L21.8 64.2z"/><g><path fill-opacity=".2" fill="#494949" d="M2.7 75.5l19-5.6-2.3.6-13.4 4-3.3 1"/><path fill="#9e8160" d="M22 65.7V70L.5 76 22 65.8"/><path fill="#fece99" d="M22 65.2h.3v.3l-.4.2v-.5"/><path fill="#fece99" d="M22 65.7L.5 76 0 75l22-10.6v1.5"/><path fill="#9e8160" d="M2 75.6v-.2l20-9.7V70h-.2l-19 5.5H2"/></g><g><path fill-opacity=".2" fill="#494949" d="M122.5 131.7V104l32.2 7-32.2 13.2"/><path d="M122 64.7h.4v.4h-.5v-.3M144.2 74.2l-.5 1.3L122.4 65v-1l21.8 10.2" fill="#ebbf8d"/><path d="M143.7 75.5l-21.3-6.2V65l21.3 10.5" fill="#9e8160"/></g><g><path fill-opacity=".2" fill="#494949" d="M72 79L21.8 64.2v55l38 11 11.4-48zM11.7 127.7v-.2l10-4v7.2z"/><path d="M22 64l.6.3 49 14.3.6.3L50.4 102 0 87.5l21.6-23 .3-.4" fill="#ffd8ac"/><path d="M72.2 80l.5-.2-.5.6V80" fill="#ebbf8d"/><path d="M0 87.5l50.4 14.7.5 1L22 95 .5 88.6l-.5-1" fill="#d9b083"/><path d="M51 103.3l-.6-1 21.8-23.4v1.4l-21.3 23" fill="#ebbf8d"/><path d="M72.7 80h-.2l.2-.2" fill-opacity=".2" fill="#494949"/></g><g><path fill-opacity=".2" fill="#494949" d="M72 79c9.7 20.3 29.3 59.4 29.3 59.4l21-6.2V64z"/><path fill-opacity=".2" fill="#494949" d="M105 140.5h-.3c-1-.5-2-1-3-1.7l-.5-.5 21-6.2.2-27.7s27.7 17.5 33.5 21v.3c-2.3.8-4.6 1.4-7 2L107 140c-.8.2-1.4.5-2 .5"/><path d="M72.7 78.5l49-14.4h.6l.3.2 21.5 23-50.2 15L72 78.6l.7-.2" fill="#ffd5a6"/><path d="M93.3 103L72 80.3v-1.5L93.8 102l-.5 1" fill="#fece99"/><path d="M122.3 94.6l-29 8.5.5-1L144 87.4l-.4 1-21.3 6.3" fill="#9e8160"/><path d="M72 79.7v.5l-.5-.5h.5" fill="#fece99"/><path d="M93.3 103L73 81.4c.5.2.8.7 1.2 1l3 3.3c1.6 1.8 3.4 3.4 5 5 1.6 2.3 3.8 4 5.5 6.2l3.6 3.8c.7.7 1 1.6 2 2l.4-.3-.4.8" fill-opacity=".2" fill="#494949"/><path d="M93.3 103l.4-.7s0-.2.2-.3l50-14.7-.4 1-21.3 6.3-29 8.5" fill="#9e8160"/></g></svg>