<svg xmlns="http://www.w3.org/2000/svg" width="164" height="164" viewBox="0 0 164 164"><path fill="#ebbf8d" d="M72 49.5L21.8 64.2v68L72 146.7v.2l50.4-15V64L72 49.5z"/><path fill="#fece99" d="M21.8 64.2L72 79v67.9l-50.2-14.7z"/><path fill="#ffd3a3" d="M72 79l50.5-15L72 49.5 21.8 64.2z"/><path fill-opacity=".2" fill="#494949" d="M122.4 131.853v-21.9l15.7 4.6v.2l-3.5 4-11.8 12.9-.3.2"/><path fill="#f7f7f7" fill-opacity=".4" d="M92 55.3L41.7 70v17.4l10 3V73l50.5-14.8-10.2-3z"/><path fill="#f0b97d" d="M72 79l50.5-15L72 49.5z"/><path fill="#deab73" d="M72 79V49.5L21.8 64.2z"/><g><path fill="#ffd5a6" d="M72 49.7l-49 15-12.6-32.8 49-15.2z"/><path fill="#fece99" d="M10.4 32L23 64.5l-.8-.2-.3.3L9.5 32.3l.8-.4"/></g><g><path fill-opacity=".2" fill="#494949" d="M122.5 131.7V104l32.2 7-32.2 13.2"/><path d="M122 64.7h.4v.4h-.5v-.3M144.2 74.2l-.5 1.3L122.4 65v-1l21.8 10.2" fill="#ebbf8d"/><path d="M143.7 75.5l-21.3-6.2V65l21.3 10.5" fill="#9e8160"/></g><g><path fill-opacity=".2" fill="#494949" d="M72 79L21.8 64.2v55l38 11 11.4-48zM11.7 127.7v-.2l10-4v7.2z"/><path d="M22 64l.6.3 49 14.3.6.3L50.4 102 0 87.5l21.6-23 .3-.4" fill="#ffd8ac"/><path d="M72.2 80l.5-.2-.5.6V80" fill="#ebbf8d"/><path d="M0 87.5l50.4 14.7.5 1L22 95 .5 88.6l-.5-1" fill="#d9b083"/><path d="M51 103.3l-.6-1 21.8-23.4v1.4l-21.3 23" fill="#ebbf8d"/><path d="M72.7 80h-.2l.2-.2" fill-opacity=".2" fill="#494949"/></g><g><path fill-opacity=".2" fill="#494949" d="M72.2 80.4l50.2-14.7v10l-29 8.3z"/><path fill="#9e8160" d="M135 40L84.5 54.7l-2.5 5-10 20.5.3.2h.2l49.7-14.6h.2l1-2.3 9-18.4 2.5-5z"/><path fill="#fece99" d="M84.6 54.7l-2.5 5-10 20.8v-1l-.7-.3.3-.5.4-1L83.7 54v-.3l1 1"/><path fill="#ffd5a6" d="M135 40L84.5 54.7l-1-1h.8L134 39l1 1"/><path fill="#f7f7f7" fill-opacity=".4" d="M82 59.8l2.6-5L135 40l-2.6 5L82 60"/></g></svg>