<svg xmlns="http://www.w3.org/2000/svg" width="164" height="164" viewBox="0 0 164 164"><path fill="#ebbf8d" d="M72 49.5L21.8 64.2v68L72 146.7v.2l50.4-15V64L72 49.5z"/><path fill="#fece99" d="M21.8 64.2L72 79v67.9l-50.2-14.7z"/><path fill="#ffd3a3" d="M72 79l50.5-15L72 49.5 21.8 64.2z"/><path fill-opacity=".2" fill="#494949" d="M122.4 131.853v-21.9l15.7 4.6v.2l-3.5 4-11.8 12.9-.3.2"/><path fill="#6a331c" d="M113.906 109.5v.03l.094-.03h-.094zm0 .03l-10.594 2.97V127l10.594-3.188v-14.28zm-.906 1.282v12.094l-9 2.594v-12l9-2.688zm-11.188 2.094l-10.624 3v14.5l10.624-3v-14.5zm-.812 1.5v12L92 129v-12l9-2.594zm9.688.5a.92.92 0 0 0-.376.063c-.554.195-1 .788-1 1.343 0 .367.204.62.5.687v.156c0 .5-.5 1.167-1 1.344-.414.146-.742.33-1 .563v-2.344c.297-.278.5-.665.5-1.032 0-.555-.445-.853-1-.657-.554.197-1 .79-1 1.345 0 .367.204.62.5.688v5.812l1-.344c-.004-.8-.004-1.554 0-2.374.15-.232.618-.52 1-.656 1-.354 2-1.72 2-2.72v-.155c.297-.277.5-.664.5-1.03 0-.417-.265-.665-.624-.69zm-.188.53c.18.015.313.14.313.345 0 .275-.227.592-.5.69-.274.095-.5-.04-.5-.314 0-.273.226-.59.5-.687a.43.43 0 0 1 .187-.032zm-3 .064c.18.013.313.14.313.344 0 .273-.227.59-.5.687-.274.098-.5-.07-.5-.343s.226-.56.5-.656a.475.475 0 0 1 .187-.03zm-17.688 1l-10.624 3V134l10.624-3v-14.5zm7 .844l-.968 9h.437l.97-9h-.438zm-7.812.344v12.124l-9 2.594v-12l9-2.72zm6.406 2.03l-1.937 1.376v.406l1.936 1.375v-.406l-1.687-1.19 1.686-1.155v-.406zm2.063 1.532v.406l1.718 1.156-1.72 1.157v.405L99.44 123v-.375l-1.97-1.375zm-12.47.125c-.144.01-.288.05-.438.094-1.29.374-2.352 1.73-2.374 2.936v5.344l1.874-.47.126-3c.046-.23.15-.408.374-.468.23-.06.332.07.376.282v2.937l2-.53v-5.344c-.095-1.16-.932-1.86-1.938-1.78zm-.375 1.22c.608-.16 1.094.204 1.094.81 0 .61-.487 1.248-1.095 1.407-.608.16-1.094-.204-1.094-.812 0-.608.487-1.246 1.095-1.406zm.5.28c-.06-.01-.116.013-.188.03-.284.076-.53.345-.53.626 0 .283.246.482.53.407a.709.709 0 0 0 .5-.656c0-.21-.13-.378-.312-.405z"/><path fill="#e8e8e8" d="M58 102.7l-21-6.3v-23l21 6v23.3"/><path fill="#367dbc" d="M56.5 81.063L38.312 75.97v19.405L56.5 100.47V81.062zm-1 1.328v5.095l-16-4.424v-5.187l16 4.518zm-1.53.4c-.126-.056-.257-.09-.376-.124l-.532-.15v3.343l.532.15c.478.13 1.093.255 1.093-.9v-.97c0-.864-.344-1.188-.718-1.35zm-1.282-.366l-1.25-.347v3.313l1.25.346v-.375l-.75-.213V83.99l.562.17v-.407l-.563-.137v-1l.75.214v-.406zm1.218.735c.18.123.25.362.25.83v1.032c0 .624-.103.736-.468.636l-.126-.01v-2.625l.126.04c.09.026.158.055.218.096zm-2.812-1.187l-.532-.12-.312.976-.313-1.15-.53-.15.593 1.81-.594 1.502.5.133.313-.976.03.017.313 1.15.53.15-.624-1.86.624-1.484zm-2.532-.68c-.09-.048-.175-.062-.25-.082-.31-.084-.812-.126-.812.875v1.157c0 .997.49 1.255.813 1.344.29.08.812.08.812-.906v-1.156c0-.763-.29-1.088-.563-1.23zm-.25.293c.2.054.313.223.313.65v1.53c0 .412-.114.5-.313.445-.204-.055-.28-.218-.28-.63v-1.5c0-.426.076-.55.28-.494zm-1.562-.684c-.202-.156-.462-.24-.688-.303l-.53-.15v3.343l.53.15c.566.155 1.094.167 1.094-.556v-.156c0-.394-.17-.73-.5-.882.224.007.438-.174.438-.528v-.188c0-.348-.142-.573-.344-.73zm-1.563-.527l-1.562-.433v.406l.53.12v2.937l.5.132V80.63l.532.12v-.375zm1.157.7c.173.11.25.318.25.55v.125c0 .31-.2.366-.47.292l-.093-.023v-1.064l.095.023c.083.022.16.057.22.094zm-3.063-1.238l-.5-.132v3.312l.5.164v-3.343zm-1.405-.343c-.094-.06-.21-.13-.344-.167-.316-.087-.843-.114-.843.888v1.156c0 1 .484 1.258.72 1.322.225.062.404.02.53-.193l.032.298.343.105v-1.687l-.75-.215v.345l.25.082v.406c0 .32-.09.568-.313.507-.212-.058-.313-.237-.313-.65v-1.5c0-.425.1-.533.313-.475.193.053.313.286.313.65v.156l.406.11c.026-.136.03-.246.03-.388 0-.29-.094-.563-.375-.748zm4.53 3.022c.174.11.22.268.22.502v.25c0 .31-.17.414-.438.34l-.156-.027v-1.218l.157.06a.842.842 0 0 1 .22.094zM55.5 89.11v9.594l-16-4.643v-9.5l16 4.55zm-2.156 1.412a.959.959 0 0 0-.313-.118c-.35-.082-.597.122-.624.45l-2-.497c-.145-.37-.46-.67-.812-.75-.42-.098-.702.188-.625.64.025.15.067.296.155.433l-1 1.047-2.094-.49.782-.83c.128.102.263.17.407.204.418.098.7-.188.624-.64-.077-.45-.488-.925-.907-1.022-.418-.097-.702.22-.624.67.025.15.102.317.187.453l-1 1.017-4.03-.92.06.41.72.165 1.438 1.61a.743.743 0 0 0-.063.403c.077.45.487.863.906.96.362.084.61-.105.626-.45l1.188.278c.144.377.487.717.843.8.353.08.6-.122.626-.452l1.124.244c.146.37.493.75.844.83.42.098.703-.22.626-.67-.077-.45-.487-.894-.906-.99-.348-.082-.564.113-.594.437l-1.156-.26c-.148-.366-.495-.688-.844-.77-.126-.028-.25-.044-.343-.01-.14.054-.205.086-.25.23a.5.5 0 0 0-.032.17v.032l-1.186-.28c-.156-.354-.505-.69-.844-.768-.144-.033-.242-.028-.344.02l-1.156-1.26 5.188 1.244s.34.084.468.052c.136-.034.313-.29.313-.29l.78-.797c.115.083.25.155.375.185.348.08.595-.128.625-.452l2 .467c.148.365.464.7.813.782.418.097.702-.188.624-.64a1.363 1.363 0 0 0-.593-.873z"/><path fill="#f7f7f7" fill-opacity=".4" d="M52 55.3l-10 3L92.2 73v17.3l10-3V70L52 55.3z"/><path fill="#f0b97d" d="M72 79l50.5-15L72 49.5z"/><path fill="#deab73" d="M72 79V49.5L21.8 64.2z"/><g><path fill-opacity=".2" fill="#494949" d="M2.7 75.5l19-5.6-2.3.6-13.4 4-3.3 1"/><path fill="#9e8160" d="M22 65.7V70L.5 76 22 65.8"/><path fill="#fece99" d="M22 65.2h.3v.3l-.4.2v-.5"/><path fill="#fece99" d="M22 65.7L.5 76 0 75l22-10.6v1.5"/><path fill="#9e8160" d="M2 75.6v-.2l20-9.7V70h-.2l-19 5.5H2"/></g><g><path fill-opacity=".2" fill="#494949" d="M122.5 131.7V104l32.2 7-32.2 13.2"/><path d="M122 64.7h.4v.4h-.5v-.3M144.2 74.2l-.5 1.3L122.4 65v-1l21.8 10.2" fill="#ebbf8d"/><path d="M143.7 75.5l-21.3-6.2V65l21.3 10.5" fill="#9e8160"/></g><g><path fill-opacity=".2" fill="#494949" d="M59.5 99.3C46.8 96 21.7 87.7 21.7 87.7V65.6L72 80.4c-4 6.7-9 13.5-12.5 19"/><path fill="#ffd6a8" d="M0 55l.6-1.3 19 5.6 1.3.4 8.8 2.6h.3l21 6.2-.5 1.3L0 55"/><path fill="#9e8160" d="M0 55l50.6 15 21.8 10.6-20.2-6-10-2.8-20-6L0 55.2"/><path fill="#ebbf8d" d="M72.3 80.4L50.5 69.8l.5-1.3 18.3 9 2.3 1 .7.4v1.4"/><path fill="#9e8160" d="M72.2 80.4l-20-6-10-2.8-20.3-6-1.3-.5L9 59.4c-2.4-1-4.6-2.2-7-3.3-.3-.2-.7-.3-1-.6l49.5 14.4 21.7 10.6"/><path fill-opacity=".2" fill="#494949" d="M72.2 80.4L50.5 69.8v-.2c1.3.5 2.5 1.2 3.7 1.8l7.8 3.8c2.3 1.2 4.7 2 7 3.4 1 .6 2.3 1 3.2 1.8"/></g><g><path fill-opacity=".2" fill="#494949" d="M72.2 80.4l50.2-14.7v10l-29 8.3z"/><path fill="#9e8160" d="M135 40L84.5 54.7l-2.5 5-10 20.5.3.2h.2l49.7-14.6h.2l1-2.3 9-18.4 2.5-5z"/><path fill="#fece99" d="M84.6 54.7l-2.5 5-10 20.8v-1l-.7-.3.3-.5.4-1L83.7 54v-.3l1 1"/><path fill="#ffd5a6" d="M135 40L84.5 54.7l-1-1h.8L134 39l1 1"/></g></svg>