<svg xmlns="http://www.w3.org/2000/svg" width="164" height="164" viewBox="0 0 164 164"><path fill="#ebbf8d" d="M72 49.5L21.8 64.2v68L72 146.7v.2l50.4-15V64L72 49.5z"/><path fill="#fece99" d="M21.8 64.2L72 79v67.9l-50.2-14.7z"/><path fill="#ffd3a3" d="M72 79l50.5-15L72 49.5 21.8 64.2z"/><path fill-opacity=".2" fill="#494949" d="M122.4 131.853v-21.9l15.7 4.6v.2l-3.5 4-11.8 12.9-.3.2"/><path fill="#6a331c" d="M113.906 109.5v.03l.094-.03h-.094zm0 .03l-10.594 2.97V127l10.594-3.188v-14.28zm-.906 1.282v12.094l-9 2.594v-12l9-2.688zm-11.188 2.094l-10.624 3v14.5l10.624-3v-14.5zm-.812 1.5v12L92 129v-12l9-2.594zm9.688.5a.92.92 0 0 0-.376.063c-.554.195-1 .788-1 1.343 0 .367.204.62.5.687v.156c0 .5-.5 1.167-1 1.344-.414.146-.742.33-1 .563v-2.344c.297-.278.5-.665.5-1.032 0-.555-.445-.853-1-.657-.554.197-1 .79-1 1.345 0 .367.204.62.5.688v5.812l1-.344c-.004-.8-.004-1.554 0-2.374.15-.232.618-.52 1-.656 1-.354 2-1.72 2-2.72v-.155c.297-.277.5-.664.5-1.03 0-.417-.265-.665-.624-.69zm-.188.53c.18.015.313.14.313.345 0 .275-.227.592-.5.69-.274.095-.5-.04-.5-.314 0-.273.226-.59.5-.687a.43.43 0 0 1 .187-.032zm-3 .064c.18.013.313.14.313.344 0 .273-.227.59-.5.687-.274.098-.5-.07-.5-.343s.226-.56.5-.656a.475.475 0 0 1 .187-.03zm-17.688 1l-10.624 3V134l10.624-3v-14.5zm7 .844l-.968 9h.437l.97-9h-.438zm-7.812.344v12.124l-9 2.594v-12l9-2.72zm6.406 2.03l-1.937 1.376v.406l1.936 1.375v-.406l-1.687-1.19 1.686-1.155v-.406zm2.063 1.532v.406l1.718 1.156-1.72 1.157v.405L99.44 123v-.375l-1.97-1.375zm-12.47.125c-.144.01-.288.05-.438.094-1.29.374-2.352 1.73-2.374 2.936v5.344l1.874-.47.126-3c.046-.23.15-.408.374-.468.23-.06.332.07.376.282v2.937l2-.53v-5.344c-.095-1.16-.932-1.86-1.938-1.78zm-.375 1.22c.608-.16 1.094.204 1.094.81 0 .61-.487 1.248-1.095 1.407-.608.16-1.094-.204-1.094-.812 0-.608.487-1.246 1.095-1.406zm.5.28c-.06-.01-.116.013-.188.03-.284.076-.53.345-.53.626 0 .283.246.482.53.407a.709.709 0 0 0 .5-.656c0-.21-.13-.378-.312-.405z"/><path fill="#f7f7f7" fill-opacity=".4" d="M52 55.3l-10 3L92.2 73v17.3l10-3V70L52 55.3z"/><path fill="#f0b97d" d="M72 79l50.5-15L72 49.5z"/><path fill="#deab73" d="M72 79V49.5L21.8 64.2z"/><g><path d="M22.5 64.7l-21.3-23L51.5 27l20.8 22.4z" fill="#ffd5a6"/><path d="M22 65.4L.6 42.8l.5-1 21.5 22.8z" fill="#fece99"/></g><g><path fill-opacity=".2" fill="#494949" d="M122.5 131.7V104l32.2 7-32.2 13.2"/><path d="M122 64.7h.4v.4h-.5v-.3M144.2 74.2l-.5 1.3L122.4 65v-1l21.8 10.2" fill="#ebbf8d"/><path d="M143.7 75.5l-21.3-6.2V65l21.3 10.5" fill="#9e8160"/></g><g><path fill="#ebbf8d" d="M72 77.3l.5 1 .2.3-.7.3v1L62 59.4l-2.6-5.2 1-1v.3L72 77.3"/><path fill="#d9b083" d="M9 39.5l2.6 5 9.7 20 .4.8h.4L72 80h.2L62 59.4l-2.6-5.2L9 39.5z"/><path fill="#ffd8ac" d="M59.4 54.2L9 39.5l1-1L59.7 53l.6.3-1 1"/><path fill="#f7f7f7" fill-opacity=".4" d="M11.6 44.6l-2.5-5L59.5 54l2.5 5.2-50.4-14.8"/></g><g><path fill-opacity=".2" fill="#494949" d="M72.2 80.4l50.2-14.7v10l-29 8.3z"/><path fill="#9e8160" d="M135 40L84.5 54.7l-2.5 5-10 20.5.3.2h.2l49.7-14.6h.2l1-2.3 9-18.4 2.5-5z"/><path fill="#fece99" d="M84.6 54.7l-2.5 5-10 20.8v-1l-.7-.3.3-.5.4-1L83.7 54v-.3l1 1"/><path fill="#ffd5a6" d="M135 40L84.5 54.7l-1-1h.8L134 39l1 1"/></g></svg>