<svg xmlns="http://www.w3.org/2000/svg" width="164" height="164" viewBox="0 0 164 164"><path fill="#ebbf8d" d="M72 49.5L21.8 64.2v68L72 146.7v.2l50.4-15V64L72 49.5z"/><path fill="#fece99" d="M21.8 64.2L72 79v67.9l-50.2-14.7z"/><path fill="#ffd3a3" d="M72 79l50.5-15L72 49.5 21.8 64.2z"/><path fill-opacity=".2" fill="#494949" d="M122.4 131.853v-21.9l15.7 4.6v.2l-3.5 4-11.8 12.9-.3.2"/><path fill="#73371e" d="M63.656 119.695v.03l.094.025-.094-.055zm0 .03l-10.593-3.27v14.5l10.593 3.052v-14.28zm-.906.75v12.092l-9-2.706v-12l9 2.614zm-11.188-4.496l-10.624-3.257v14.5l10.624 3.256v-14.501zM50.75 117v12l-9-2.705v-12l9 2.706zm9.688 6.206a1.128 1.128 0 0 0-.376-.16c-.554-.13-1 .2-1 .756 0 .367.204.74.5.982v.156c0 .5-.5.873-1 .755-.414-.097-.742-.106-1-.026v-2.345c.297-.102.5-.37.5-.737 0-.554-.445-1.114-1-1.245-.554-.13-1 .2-1 .755 0 .367.204.74.5.982v5.812l1 .246c-.004-.804-.004-1.56 0-2.375.15-.145.618-.158 1-.068 1 .235 2-.54 2-1.54v-.157c.297-.102.5-.37.5-.737 0-.415-.265-.82-.624-1.054zm-.188.42c.18.12.313.323.313.528a.391.391 0 0 1-.5.393c-.274-.064-.5-.333-.5-.607 0-.273.226-.457.5-.393.068.016.127.04.187.08zm-3-1.704c.18.12.313.323.313.528a.392.392 0 0 1-.5.393c-.274-.064-.5-.365-.5-.638s.226-.426.5-.362c.068.016.127.04.187.08zm-17.688-9.415l-10.624-3.257v14.5l10.625 3.257v-14.5zm7 4.966l-.968 8.43.437.257.97-8.43-.438-.257zm-7.812-4.257v12.125l-9-2.705v-12l9 2.58zm6.406 5.803l-1.937.234v.406l1.936 2.516v-.407l-1.687-2.182 1.686-.162v-.407zm2.063 2.745v.407l1.718 2.168-1.72.144v.406l1.97-.215v-.375l-1.97-2.535zm-12.47-7.217a2.42 2.42 0 0 0-.438-.164c-1.29-.384-2.352.346-2.374 1.54v5.343l1.875.635.124-2.926c.047-.204.15-.322.376-.248.228.074.33.265.374.502v2.937l2 .647v-5.344c-.094-1.215-.93-2.408-1.937-2.922zm-.375.998c.608.198 1.094.85 1.094 1.456 0 .608-.487.96-1.095.762-.608-.197-1.094-.85-1.094-1.456 0-.608.487-.96 1.095-.762zm.5.575c-.06-.043-.116-.055-.188-.078-.284-.092-.53.03-.53.312 0 .282.246.627.53.72.285.092.5-.08.5-.362a.787.787 0 0 0-.312-.59z"/><path fill="#f7f7f7" fill-opacity=".4" d="M92 55.3L41.7 70v17.4l10 3V73l50.5-14.8-10.2-3z"/><path fill="#f0b97d" d="M72 79l50.5-15L72 49.5z"/><path fill="#deab73" d="M72 79V49.5L21.8 64.2z"/><g><path d="M22.5 64.7l-21.3-23L51.5 27l20.8 22.4z" fill="#ffd5a6"/><path d="M22 65.4L.6 42.8l.5-1 21.5 22.8z" fill="#fece99"/></g><g><path fill-opacity=".2" fill="#494949" d="M122.5 131.7V104l32.2 7-32.2 13.2"/><path d="M122 64.7h.4v.4h-.5v-.3M144.2 74.2l-.5 1.3L122.4 65v-1l21.8 10.2" fill="#ebbf8d"/><path d="M143.7 75.5l-21.3-6.2V65l21.3 10.5" fill="#9e8160"/></g><g><path fill="#ebbf8d" d="M72 77.3l.5 1 .2.3-.7.3v1L62 59.4l-2.6-5.2 1-1v.3L72 77.3"/><path fill="#d9b083" d="M9 39.5l2.6 5 9.7 20 .4.8h.4L72 80h.2L62 59.4l-2.6-5.2L9 39.5z"/><path fill="#ffd8ac" d="M59.4 54.2L9 39.5l1-1L59.7 53l.6.3-1 1"/></g><g><path fill-opacity=".2" fill="#494949" d="M72.2 80.4l50.2-14.7v10l-29 8.3z"/><path fill="#9e8160" d="M135 40L84.5 54.7l-2.5 5-10 20.5.3.2h.2l49.7-14.6h.2l1-2.3 9-18.4 2.5-5z"/><path fill="#fece99" d="M84.6 54.7l-2.5 5-10 20.8v-1l-.7-.3.3-.5.4-1L83.7 54v-.3l1 1"/><path fill="#ffd5a6" d="M135 40L84.5 54.7l-1-1h.8L134 39l1 1"/><path fill="#f7f7f7" fill-opacity=".4" d="M82 59.8l2.6-5L135 40l-2.6 5L82 60"/></g></svg>