<svg xmlns="http://www.w3.org/2000/svg" width="164" height="164" viewBox="0 0 164 164"><path fill="#ebbf8d" d="M72 49.5L21.8 64.2v68L72 146.7v.2l50.4-15V64L72 49.5z"/><path fill="#fece99" d="M21.8 64.2L72 79v67.9l-50.2-14.7z"/><path fill="#ffd3a3" d="M72 79l50.5-15L72 49.5 21.8 64.2z"/><path fill-opacity=".2" fill="#494949" d="M122.4 131.853v-21.9l15.7 4.6v.2l-3.5 4-11.8 12.9-.3.2"/><path fill="#6a331c" d="M113.906 109.5v.03l.094-.03h-.094zm0 .03l-10.594 2.97V127l10.594-3.188v-14.28zm-.906 1.282v12.094l-9 2.594v-12l9-2.688zm-11.188 2.094l-10.624 3v14.5l10.624-3v-14.5zm-.812 1.5v12L92 129v-12l9-2.594zm9.688.5a.92.92 0 0 0-.376.063c-.554.195-1 .788-1 1.343 0 .367.204.62.5.687v.156c0 .5-.5 1.167-1 1.344-.414.146-.742.33-1 .563v-2.344c.297-.278.5-.665.5-1.032 0-.555-.445-.853-1-.657-.554.197-1 .79-1 1.345 0 .367.204.62.5.688v5.812l1-.344c-.004-.8-.004-1.554 0-2.374.15-.232.618-.52 1-.656 1-.354 2-1.72 2-2.72v-.155c.297-.277.5-.664.5-1.03 0-.417-.265-.665-.624-.69zm-.188.53c.18.015.313.14.313.345 0 .275-.227.592-.5.69-.274.095-.5-.04-.5-.314 0-.273.226-.59.5-.687a.43.43 0 0 1 .187-.032zm-3 .064c.18.013.313.14.313.344 0 .273-.227.59-.5.687-.274.098-.5-.07-.5-.343s.226-.56.5-.656a.475.475 0 0 1 .187-.03zm-17.688 1l-10.624 3V134l10.624-3v-14.5zm7 .844l-.968 9h.437l.97-9h-.438zm-7.812.344v12.124l-9 2.594v-12l9-2.72zm6.406 2.03l-1.937 1.376v.406l1.936 1.375v-.406l-1.687-1.19 1.686-1.155v-.406zm2.063 1.532v.406l1.718 1.156-1.72 1.157v.405L99.44 123v-.375l-1.97-1.375zm-12.47.125c-.144.01-.288.05-.438.094-1.29.374-2.352 1.73-2.374 2.936v5.344l1.874-.47.126-3c.046-.23.15-.408.374-.468.23-.06.332.07.376.282v2.937l2-.53v-5.344c-.095-1.16-.932-1.86-1.938-1.78zm-.375 1.22c.608-.16 1.094.204 1.094.81 0 .61-.487 1.248-1.095 1.407-.608.16-1.094-.204-1.094-.812 0-.608.487-1.246 1.095-1.406zm.5.28c-.06-.01-.116.013-.188.03-.284.076-.53.345-.53.626 0 .283.246.482.53.407a.709.709 0 0 0 .5-.656c0-.21-.13-.378-.312-.405z"/><path fill="#f7f7f7" fill-opacity=".4" d="M92 55.3L41.7 70v17.4l10 3V73l50.5-14.8-10.2-3z"/><path fill="#f0b97d" d="M72 79l50.5-15L72 49.5z"/><path fill="#deab73" d="M72 79V49.5L21.8 64.2z"/><g><path fill-opacity=".2" fill="#494949" d="M2.7 75.5l19-5.6-2.3.6-13.4 4-3.3 1"/><path fill="#9e8160" d="M22 65.7V70L.5 76 22 65.8"/><path fill="#fece99" d="M22 65.2h.3v.3l-.4.2v-.5"/><path fill="#fece99" d="M22 65.7L.5 76 0 75l22-10.6v1.5"/><path fill="#9e8160" d="M2 75.6v-.2l20-9.7V70h-.2l-19 5.5H2"/></g><g><path d="M72 49.5L92 27l50 13.3L121 64c-6.7-2.6-49-14.5-49-14.5z" fill="#ffd8ac"/><path d="M142 40.3l.5 1-21 23.6-.5-1z" fill="#ebbf8d"/><path d="M122.3 120.8v-29l40 11z" fill-opacity=".2" fill="#494949"/></g><g><path fill-opacity=".2" fill="#494949" d="M59.5 99.3C46.8 96 21.7 87.7 21.7 87.7V65.6L72 80.4c-4 6.7-9 13.5-12.5 19"/><path fill="#ffd6a8" d="M0 55l.6-1.3 19 5.6 1.3.4 8.8 2.6h.3l21 6.2-.5 1.3L0 55"/><path fill="#9e8160" d="M0 55l50.6 15 21.8 10.6-20.2-6-10-2.8-20-6L0 55.2"/><path fill="#ebbf8d" d="M72.3 80.4L50.5 69.8l.5-1.3 18.3 9 2.3 1 .7.4v1.4"/><path fill="#9e8160" d="M72.2 80.4l-20-6-10-2.8-20.3-6-1.3-.5L9 59.4c-2.4-1-4.6-2.2-7-3.3-.3-.2-.7-.3-1-.6l49.5 14.4 21.7 10.6"/><path fill-opacity=".2" fill="#494949" d="M72.2 80.4L50.5 69.8v-.2c1.3.5 2.5 1.2 3.7 1.8l7.8 3.8c2.3 1.2 4.7 2 7 3.4 1 .6 2.3 1 3.2 1.8"/></g><g><path fill-opacity=".2" fill="#494949" d="M109.6 120.8L72.2 80.4l50.2-14.6V117l-12.8 3.8M122.4 111.2l38 5 1 1.5-39 10.7"/><path d="M93.2 68.6l21-6 .2-.2 9-2.6 1-.4 19-5.5.6 1.2L93.7 70l-.5-1.4" fill="#ffd5a6"/><path d="M93.2 68.6l.5 1.3L72 80.5V79l.5-.3 2.4-1.2 18.2-9" fill="#fece99"/><path d="M93.7 70L144 55l-21.8 10.6-20 6-10.2 3-20 5.8L93.6 70" fill="#9e8160"/><path d="M72 80.6l-.3-.6h.2v.6" fill="#fece99"/><path d="M125.8 64l15.4-7.5-12 6-3.4 1.6m15.8-7.6l.3-.2c-.2 0-.3 0-.4.2M72.2 80.4c2.6-1.5 5.4-2.7 8-4 1.6-1 3.2-1.7 4.8-2.4 3-1.3 5.7-3 8.6-4.2L72.3 80.5" fill-opacity=".2" fill="#494949"/><path d="M72.2 80.5l21.5-10.6L142 55.7h.2c0 .2-.2.3-.3.4l-.4.2h-.4L125.7 64l-1.5.8-2 1-20.2 6-10 3-19.8 5.7" fill="#9e8160"/></g></svg>