<svg xmlns="http://www.w3.org/2000/svg" width="164" height="164" viewBox="0 0 164 164"><path fill="#ebbf8d" d="M72 49.5L21.8 64.2v68L72 146.7v.2l50.4-15V64L72 49.5z"/><path fill="#fece99" d="M21.8 64.2L72 79v67.9l-50.2-14.7z"/><path fill="#ffd3a3" d="M72 79l50.5-15L72 49.5 21.8 64.2z"/><path fill-opacity=".2" fill="#494949" d="M122.4 131.853v-21.9l15.7 4.6v.2l-3.5 4-11.8 12.9-.3.2"/><path fill="#6a331c" d="M113.906 109.5v.03l.094-.03h-.094zm0 .03l-10.594 2.97V127l10.594-3.188v-14.28zm-.906 1.282v12.094l-9 2.594v-12l9-2.688zm-11.188 2.094l-10.624 3v14.5l10.624-3v-14.5zm-.812 1.5v12L92 129v-12l9-2.594zm9.688.5a.92.92 0 0 0-.376.063c-.554.195-1 .788-1 1.343 0 .367.204.62.5.687v.156c0 .5-.5 1.167-1 1.344-.414.146-.742.33-1 .563v-2.344c.297-.278.5-.665.5-1.032 0-.555-.445-.853-1-.657-.554.197-1 .79-1 1.345 0 .367.204.62.5.688v5.812l1-.344c-.004-.8-.004-1.554 0-2.374.15-.232.618-.52 1-.656 1-.354 2-1.72 2-2.72v-.155c.297-.277.5-.664.5-1.03 0-.417-.265-.665-.624-.69zm-.188.53c.18.015.313.14.313.345 0 .275-.227.592-.5.69-.274.095-.5-.04-.5-.314 0-.273.226-.59.5-.687a.43.43 0 0 1 .187-.032zm-3 .064c.18.013.313.14.313.344 0 .273-.227.59-.5.687-.274.098-.5-.07-.5-.343s.226-.56.5-.656a.475.475 0 0 1 .187-.03zm-17.688 1l-10.624 3V134l10.624-3v-14.5zm7 .844l-.968 9h.437l.97-9h-.438zm-7.812.344v12.124l-9 2.594v-12l9-2.72zm6.406 2.03l-1.937 1.376v.406l1.936 1.375v-.406l-1.687-1.19 1.686-1.155v-.406zm2.063 1.532v.406l1.718 1.156-1.72 1.157v.405L99.44 123v-.375l-1.97-1.375zm-12.47.125c-.144.01-.288.05-.438.094-1.29.374-2.352 1.73-2.374 2.936v5.344l1.874-.47.126-3c.046-.23.15-.408.374-.468.23-.06.332.07.376.282v2.937l2-.53v-5.344c-.095-1.16-.932-1.86-1.938-1.78zm-.375 1.22c.608-.16 1.094.204 1.094.81 0 .61-.487 1.248-1.095 1.407-.608.16-1.094-.204-1.094-.812 0-.608.487-1.246 1.095-1.406zm.5.28c-.06-.01-.116.013-.188.03-.284.076-.53.345-.53.626 0 .283.246.482.53.407a.709.709 0 0 0 .5-.656c0-.21-.13-.378-.312-.405z"/><path fill="#e8e8e8" d="M108.5 97l-21.2 6.3V80l21.2-6v23"/><path fill="#367dbc" d="M107 76.188l-18.188 5.406V101L107 95.594V76.188zm-1 1.906v5.094L90 88v-5.188l16-4.718zm-1.53 1.28a2.494 2.494 0 0 0-.376.095l-.53.155v3.344l.53-.157c.478-.146 1.094-.377 1.094-1.532v-.968c0-.864-.345-.99-.72-.937zm-1.282.376l-1.25.375v3.313l1.25-.376v-.374l-.75.218V81.75l.562-.156v-.406l-.563.187v-1l.75-.22v-.405zm1.218.03c.18.02.25.22.25.69v1.03c0 .624-.103.795-.47.906l-.124.063v-2.626l.126-.03c.09-.03.158-.04.218-.033zm-2.812.44l-.53.186-.314 1.156-.313-.968-.53.156.593 1.47-.594 1.843.5-.157.313-1.156h.03l.312.97.532-.157-.625-1.5.624-1.844zm-2.53.78c-.092.005-.177.04-.25.063-.313.094-.814.342-.814 1.343v1.156c0 .998.49.974.813.876.29-.088.812-.39.812-1.376v-1.156c0-.763-.29-.92-.563-.906zm-.25.438c.197-.06.31.042.31.468v1.53c0 .414-.113.566-.31.626-.206.062-.283-.056-.283-.468v-1.5c0-.426.078-.595.282-.656zm-1.564.218c-.202-.04-.462.026-.688.094l-.53.156v3.344l.53-.156c.566-.172 1.094-.464 1.094-1.188v-.156c0-.395-.17-.633-.5-.594.224-.122.438-.427.438-.78v-.19c0-.347-.142-.49-.344-.53zm-1.563.375l-1.562.47v.406l.53-.187v2.936l.5-.156v-2.906l.532-.188v-.375zm1.157.032c.173.012.25.175.25.407v.124c0 .31-.2.48-.47.562l-.093.03v-1.06l.095-.032a.617.617 0 0 1 .22-.03zm-3.063.532l-.5.156v3.313l.5-.126v-3.343zm-1.405.47a.859.859 0 0 0-.344.03c-.316.096-.843.373-.843 1.375v1.155c0 .998.484.978.72.906.225-.067.404-.213.53-.5l.032.282.343-.093v-1.69l-.75.22v.344l.25-.063v.407c0 .32-.09.62-.313.688-.212.064-.313-.056-.313-.47v-1.5c0-.425.1-.59.313-.655.193-.058.313.105.313.47v.155L92.72 84c.026-.152.03-.264.03-.406 0-.29-.094-.51-.375-.53zm4.53.405c.174.01.22.14.22.374v.25c0 .31-.17.512-.438.594l-.156.062v-1.22l.157-.03a.623.623 0 0 1 .22-.03zM106 84.812v9.593L90 99v-9.5l16-4.688zm-2.156 2.656a.97.97 0 0 0-.937.874l-2 .656c-.145-.286-.46-.403-.812-.28-.42.143-.702.592-.625 1a.626.626 0 0 0 .155.343l-1 1.624-2.094.72.782-1.282a.757.757 0 0 0 .407-.03c.418-.146.7-.595.624-1-.077-.408-.488-.646-.906-.5-.42.143-.703.623-.626 1.03a.698.698 0 0 0 .188.344l-1 1.593-4.03 1.406.06.374.72-.25 1.438.78c-.045.132-.088.305-.063.44.077.405.487.58.906.436a.923.923 0 0 0 .626-.813l1.188-.406c.144.295.487.437.844.314a.962.962 0 0 0 .624-.813l1.126-.405a.694.694 0 0 0 .843.344c.42-.146.703-.626.626-1.032-.077-.407-.487-.614-.906-.47a.902.902 0 0 0-.594.782l-1.156.406c-.148-.28-.495-.4-.844-.28a.926.926 0 0 0-.344.186c-.14.135-.204.204-.25.376a.642.642 0 0 0-.03.187v.03l-1.188.407c-.156-.264-.505-.398-.844-.28a.787.787 0 0 0-.344.218l-1.156-.594 5.188-1.75s.34-.112.468-.22c.136-.11.313-.467.313-.467l.78-1.25a.84.84 0 0 0 .375-.032.979.979 0 0 0 .625-.813l2-.688a.65.65 0 0 0 .813.313c.418-.145.702-.593.624-1a.63.63 0 0 0-.593-.53z"/><path fill="#f7f7f7" fill-opacity=".4" d="M92 55.3L41.7 70v17.4l10 3V73l50.5-14.8-10.2-3z"/><path fill="#f0b97d" d="M72 79l50.5-15L72 49.5z"/><path fill="#deab73" d="M72 79V49.5L21.8 64.2z"/><g><path fill-opacity=".2" fill="#494949" d="M2.7 75.5l19-5.6-2.3.6-13.4 4-3.3 1"/><path fill="#9e8160" d="M22 65.7V70L.5 76 22 65.8"/><path fill="#fece99" d="M22 65.2h.3v.3l-.4.2v-.5"/><path fill="#fece99" d="M22 65.7L.5 76 0 75l22-10.6v1.5"/><path fill="#9e8160" d="M2 75.6v-.2l20-9.7V70h-.2l-19 5.5H2"/></g><g><path d="M72 49.5L92 27l50 13.3L121 64c-6.7-2.6-49-14.5-49-14.5z" fill="#ffd8ac"/><path d="M142 40.3l.5 1-21 23.6-.5-1z" fill="#ebbf8d"/><path d="M122.3 120.8v-29l40 11z" fill-opacity=".2" fill="#494949"/></g><g><path fill-opacity=".2" fill="#494949" d="M59.5 99.3C46.8 96 21.7 87.7 21.7 87.7V65.6L72 80.4c-4 6.7-9 13.5-12.5 19"/><path fill="#ffd6a8" d="M0 55l.6-1.3 19 5.6 1.3.4 8.8 2.6h.3l21 6.2-.5 1.3L0 55"/><path fill="#9e8160" d="M0 55l50.6 15 21.8 10.6-20.2-6-10-2.8-20-6L0 55.2"/><path fill="#ebbf8d" d="M72.3 80.4L50.5 69.8l.5-1.3 18.3 9 2.3 1 .7.4v1.4"/><path fill="#9e8160" d="M72.2 80.4l-20-6-10-2.8-20.3-6-1.3-.5L9 59.4c-2.4-1-4.6-2.2-7-3.3-.3-.2-.7-.3-1-.6l49.5 14.4 21.7 10.6"/><path fill-opacity=".2" fill="#494949" d="M72.2 80.4L50.5 69.8v-.2c1.3.5 2.5 1.2 3.7 1.8l7.8 3.8c2.3 1.2 4.7 2 7 3.4 1 .6 2.3 1 3.2 1.8"/></g><g><path fill-opacity=".2" fill="#494949" d="M72.2 80.4l50.2-14.7v10l-29 8.3z"/><path fill="#9e8160" d="M135 40L84.5 54.7l-2.5 5-10 20.5.3.2h.2l49.7-14.6h.2l1-2.3 9-18.4 2.5-5z"/><path fill="#fece99" d="M84.6 54.7l-2.5 5-10 20.8v-1l-.7-.3.3-.5.4-1L83.7 54v-.3l1 1"/><path fill="#ffd5a6" d="M135 40L84.5 54.7l-1-1h.8L134 39l1 1"/><path fill="#f7f7f7" fill-opacity=".4" d="M82 59.8l2.6-5L135 40l-2.6 5L82 60"/></g></svg>