<svg xmlns="http://www.w3.org/2000/svg" width="164" height="164" viewBox="0 0 164 164"><path fill="#ebbf8d" d="M72 49.5L21.8 64.2v68L72 146.7v.2l50.4-15V64L72 49.5z"/><path fill="#fece99" d="M21.8 64.2L72 79v67.9l-50.2-14.7z"/><path fill="#ffd3a3" d="M72 79l50.5-15L72 49.5 21.8 64.2z"/><path fill-opacity=".2" fill="#494949" d="M122.4 131.853v-21.9l15.7 4.6v.2l-3.5 4-11.8 12.9-.3.2"/><path fill="#f7f7f7" fill-opacity=".4" d="M92 55.3L41.7 70v17.4l10 3V73l50.5-14.8-10.2-3z"/><path fill="#f0b97d" d="M72 79l50.5-15L72 49.5z"/><path fill="#deab73" d="M72 79V49.5L21.8 64.2z"/><g><path fill="#ffd5a6" d="M72 49.7l-49 15-12.6-32.8 49-15.2z"/><path fill="#fece99" d="M10.4 32L23 64.5l-.8-.2-.3.3L9.5 32.3l.8-.4"/></g><g><path fill-opacity=".2" fill="#494949" d="M122.4 124c-.3-10.2 0-31.6 0-31.6L149 100c2.8 1 5.7 1.6 8.5 2.6v.3"/><path d="M122.2 64.2l-.7.2 12.3-32.7 1 .4-12.3 32.5-.3-.3" fill="#ebbf8d"/><path d="M72 49l12-32 49.8 14.7-12.3 32.7-49.8-14.7.3-.7" fill="#ffd6a8"/></g><g><path fill="#ebbf8d" d="M72 77.3l.5 1 .2.3-.7.3v1L62 59.4l-2.6-5.2 1-1v.3L72 77.3"/><path fill="#d9b083" d="M9 39.5l2.6 5 9.7 20 .4.8h.4L72 80h.2L62 59.4l-2.6-5.2L9 39.5z"/><path fill="#ffd8ac" d="M59.4 54.2L9 39.5l1-1L59.7 53l.6.3-1 1"/></g><g><path fill-opacity=".2" fill="#494949" d="M72 79c9.7 20.3 29.3 59.4 29.3 59.4l21-6.2V64z"/><path fill-opacity=".2" fill="#494949" d="M105 140.5h-.3c-1-.5-2-1-3-1.7l-.5-.5 21-6.2.2-27.7s27.7 17.5 33.5 21v.3c-2.3.8-4.6 1.4-7 2L107 140c-.8.2-1.4.5-2 .5"/><path d="M72.7 78.5l49-14.4h.6l.3.2 21.5 23-50.2 15L72 78.6l.7-.2" fill="#ffd5a6"/><path d="M93.3 103L72 80.3v-1.5L93.8 102l-.5 1" fill="#fece99"/><path d="M122.3 94.6l-29 8.5.5-1L144 87.4l-.4 1-21.3 6.3" fill="#9e8160"/><path d="M72 79.7v.5l-.5-.5h.5" fill="#fece99"/><path d="M93.3 103L73 81.4c.5.2.8.7 1.2 1l3 3.3c1.6 1.8 3.4 3.4 5 5 1.6 2.3 3.8 4 5.5 6.2l3.6 3.8c.7.7 1 1.6 2 2l.4-.3-.4.8" fill-opacity=".2" fill="#494949"/><path d="M93.3 103l.4-.7s0-.2.2-.3l50-14.7-.4 1-21.3 6.3-29 8.5" fill="#9e8160"/></g></svg>