<svg xmlns="http://www.w3.org/2000/svg" width="164" height="164" viewBox="0 0 164 164"><path fill="#ebbf8d" d="M72 49.5L21.8 64.2v68L72 146.7v.2l50.4-15V64L72 49.5z"/><path fill="#fece99" d="M21.8 64.2L72 79v67.9l-50.2-14.7z"/><path fill="#ffd3a3" d="M72 79l50.5-15L72 49.5 21.8 64.2z"/><path fill-opacity=".2" fill="#494949" d="M122.4 131.853v-21.9l15.7 4.6v.2l-3.5 4-11.8 12.9-.3.2"/><path fill="#73371e" d="M63.656 119.695v.03l.094.025-.094-.055zm0 .03l-10.593-3.27v14.5l10.593 3.052v-14.28zm-.906.75v12.092l-9-2.706v-12l9 2.614zm-11.188-4.496l-10.624-3.257v14.5l10.624 3.256v-14.501zM50.75 117v12l-9-2.705v-12l9 2.706zm9.688 6.206a1.128 1.128 0 0 0-.376-.16c-.554-.13-1 .2-1 .756 0 .367.204.74.5.982v.156c0 .5-.5.873-1 .755-.414-.097-.742-.106-1-.026v-2.345c.297-.102.5-.37.5-.737 0-.554-.445-1.114-1-1.245-.554-.13-1 .2-1 .755 0 .367.204.74.5.982v5.812l1 .246c-.004-.804-.004-1.56 0-2.375.15-.145.618-.158 1-.068 1 .235 2-.54 2-1.54v-.157c.297-.102.5-.37.5-.737 0-.415-.265-.82-.624-1.054zm-.188.42c.18.12.313.323.313.528a.391.391 0 0 1-.5.393c-.274-.064-.5-.333-.5-.607 0-.273.226-.457.5-.393.068.016.127.04.187.08zm-3-1.704c.18.12.313.323.313.528a.392.392 0 0 1-.5.393c-.274-.064-.5-.365-.5-.638s.226-.426.5-.362c.068.016.127.04.187.08zm-17.688-9.415l-10.624-3.257v14.5l10.625 3.257v-14.5zm7 4.966l-.968 8.43.437.257.97-8.43-.438-.257zm-7.812-4.257v12.125l-9-2.705v-12l9 2.58zm6.406 5.803l-1.937.234v.406l1.936 2.516v-.407l-1.687-2.182 1.686-.162v-.407zm2.063 2.745v.407l1.718 2.168-1.72.144v.406l1.97-.215v-.375l-1.97-2.535zm-12.47-7.217a2.42 2.42 0 0 0-.438-.164c-1.29-.384-2.352.346-2.374 1.54v5.343l1.875.635.124-2.926c.047-.204.15-.322.376-.248.228.074.33.265.374.502v2.937l2 .647v-5.344c-.094-1.215-.93-2.408-1.937-2.922zm-.375.998c.608.198 1.094.85 1.094 1.456 0 .608-.487.96-1.095.762-.608-.197-1.094-.85-1.094-1.456 0-.608.487-.96 1.095-.762zm.5.575c-.06-.043-.116-.055-.188-.078-.284-.092-.53.03-.53.312 0 .282.246.627.53.72.285.092.5-.08.5-.362a.787.787 0 0 0-.312-.59z"/><path fill="#e8e8e8" d="M58 102.7l-21-6.3v-23l21 6v23.3"/><path fill="#367dbc" d="M56.5 81.063L38.312 75.97v19.405L56.5 100.47V81.062zm-1 1.328v5.095l-16-4.424v-5.187l16 4.518zm-1.53.4c-.126-.056-.257-.09-.376-.124l-.532-.15v3.343l.532.15c.478.13 1.093.255 1.093-.9v-.97c0-.864-.344-1.188-.718-1.35zm-1.282-.366l-1.25-.347v3.313l1.25.346v-.375l-.75-.213V83.99l.562.17v-.407l-.563-.137v-1l.75.214v-.406zm1.218.735c.18.123.25.362.25.83v1.032c0 .624-.103.736-.468.636l-.126-.01v-2.625l.126.04c.09.026.158.055.218.096zm-2.812-1.187l-.532-.12-.312.976-.313-1.15-.53-.15.593 1.81-.594 1.502.5.133.313-.976.03.017.313 1.15.53.15-.624-1.86.624-1.484zm-2.532-.68c-.09-.048-.175-.062-.25-.082-.31-.084-.812-.126-.812.875v1.157c0 .997.49 1.255.813 1.344.29.08.812.08.812-.906v-1.156c0-.763-.29-1.088-.563-1.23zm-.25.293c.2.054.313.223.313.65v1.53c0 .412-.114.5-.313.445-.204-.055-.28-.218-.28-.63v-1.5c0-.426.076-.55.28-.494zm-1.562-.684c-.202-.156-.462-.24-.688-.303l-.53-.15v3.343l.53.15c.566.155 1.094.167 1.094-.556v-.156c0-.394-.17-.73-.5-.882.224.007.438-.174.438-.528v-.188c0-.348-.142-.573-.344-.73zm-1.563-.527l-1.562-.433v.406l.53.12v2.937l.5.132V80.63l.532.12v-.375zm1.157.7c.173.11.25.318.25.55v.125c0 .31-.2.366-.47.292l-.093-.023v-1.064l.095.023c.083.022.16.057.22.094zm-3.063-1.238l-.5-.132v3.312l.5.164v-3.343zm-1.405-.343c-.094-.06-.21-.13-.344-.167-.316-.087-.843-.114-.843.888v1.156c0 1 .484 1.258.72 1.322.225.062.404.02.53-.193l.032.298.343.105v-1.687l-.75-.215v.345l.25.082v.406c0 .32-.09.568-.313.507-.212-.058-.313-.237-.313-.65v-1.5c0-.425.1-.533.313-.475.193.053.313.286.313.65v.156l.406.11c.026-.136.03-.246.03-.388 0-.29-.094-.563-.375-.748zm4.53 3.022c.174.11.22.268.22.502v.25c0 .31-.17.414-.438.34l-.156-.027v-1.218l.157.06a.842.842 0 0 1 .22.094zM55.5 89.11v9.594l-16-4.643v-9.5l16 4.55zm-2.156 1.412a.959.959 0 0 0-.313-.118c-.35-.082-.597.122-.624.45l-2-.497c-.145-.37-.46-.67-.812-.75-.42-.098-.702.188-.625.64.025.15.067.296.155.433l-1 1.047-2.094-.49.782-.83c.128.102.263.17.407.204.418.098.7-.188.624-.64-.077-.45-.488-.925-.907-1.022-.418-.097-.702.22-.624.67.025.15.102.317.187.453l-1 1.017-4.03-.92.06.41.72.165 1.438 1.61a.743.743 0 0 0-.063.403c.077.45.487.863.906.96.362.084.61-.105.626-.45l1.188.278c.144.377.487.717.843.8.353.08.6-.122.626-.452l1.124.244c.146.37.493.75.844.83.42.098.703-.22.626-.67-.077-.45-.487-.894-.906-.99-.348-.082-.564.113-.594.437l-1.156-.26c-.148-.366-.495-.688-.844-.77-.126-.028-.25-.044-.343-.01-.14.054-.205.086-.25.23a.5.5 0 0 0-.032.17v.032l-1.186-.28c-.156-.354-.505-.69-.844-.768-.144-.033-.242-.028-.344.02l-1.156-1.26 5.188 1.244s.34.084.468.052c.136-.034.313-.29.313-.29l.78-.797c.115.083.25.155.375.185.348.08.595-.128.625-.452l2 .467c.148.365.464.7.813.782.418.097.702-.188.624-.64a1.363 1.363 0 0 0-.593-.873z"/><path fill="#f7f7f7" fill-opacity=".4" d="M52 55.3l-10 3L92.2 73v17.3l10-3V70L52 55.3z"/><path fill="#f0b97d" d="M72 79l50.5-15L72 49.5z"/><path fill="#deab73" d="M72 79V49.5L21.8 64.2z"/><g><path d="M22.5 64.7l-21.3-23L51.5 27l20.8 22.4z" fill="#ffd5a6"/><path d="M22 65.4L.6 42.8l.5-1 21.5 22.8z" fill="#fece99"/></g><g><path fill-opacity=".2" fill="#494949" d="M122.4 124c-.3-10.2 0-31.6 0-31.6L149 100c2.8 1 5.7 1.6 8.5 2.6v.3"/><path d="M122.2 64.2l-.7.2 12.3-32.7 1 .4-12.3 32.5-.3-.3" fill="#ebbf8d"/><path d="M72 49l12-32 49.8 14.7-12.3 32.7-49.8-14.7.3-.7" fill="#ffd6a8"/></g><g><path fill-opacity=".2" fill="#494949" d="M72 79L21.8 64.2v55l38 11 11.4-48zM11.7 127.7v-.2l10-4v7.2z"/><path d="M22 64l.6.3 49 14.3.6.3L50.4 102 0 87.5l21.6-23 .3-.4" fill="#ffd8ac"/><path d="M72.2 80l.5-.2-.5.6V80" fill="#ebbf8d"/><path d="M0 87.5l50.4 14.7.5 1L22 95 .5 88.6l-.5-1" fill="#d9b083"/><path d="M51 103.3l-.6-1 21.8-23.4v1.4l-21.3 23" fill="#ebbf8d"/><path d="M72.7 80h-.2l.2-.2" fill-opacity=".2" fill="#494949"/></g><g><path fill-opacity=".2" fill="#494949" d="M109.6 120.8L72.2 80.4l50.2-14.6V117l-12.8 3.8M122.4 111.2l38 5 1 1.5-39 10.7"/><path d="M93.2 68.6l21-6 .2-.2 9-2.6 1-.4 19-5.5.6 1.2L93.7 70l-.5-1.4" fill="#ffd5a6"/><path d="M93.2 68.6l.5 1.3L72 80.5V79l.5-.3 2.4-1.2 18.2-9" fill="#fece99"/><path d="M93.7 70L144 55l-21.8 10.6-20 6-10.2 3-20 5.8L93.6 70" fill="#9e8160"/><path d="M72 80.6l-.3-.6h.2v.6" fill="#fece99"/><path d="M125.8 64l15.4-7.5-12 6-3.4 1.6m15.8-7.6l.3-.2c-.2 0-.3 0-.4.2M72.2 80.4c2.6-1.5 5.4-2.7 8-4 1.6-1 3.2-1.7 4.8-2.4 3-1.3 5.7-3 8.6-4.2L72.3 80.5" fill-opacity=".2" fill="#494949"/><path d="M72.2 80.5l21.5-10.6L142 55.7h.2c0 .2-.2.3-.3.4l-.4.2h-.4L125.7 64l-1.5.8-2 1-20.2 6-10 3-19.8 5.7" fill="#9e8160"/></g></svg>