<svg xmlns="http://www.w3.org/2000/svg" width="164" height="164" viewBox="0 0 164 164"><path fill="#ebbf8d" d="M72 49.5L21.8 64.2v68L72 146.7v.2l50.4-15V64L72 49.5z"/><path fill="#fece99" d="M21.8 64.2L72 79v67.9l-50.2-14.7z"/><path fill="#ffd3a3" d="M72 79l50.5-15L72 49.5 21.8 64.2z"/><path fill-opacity=".2" fill="#494949" d="M122.4 131.853v-21.9l15.7 4.6v.2l-3.5 4-11.8 12.9-.3.2"/><path fill="#f7f7f7" fill-opacity=".4" d="M52 55.3l-10 3L92.2 73v17.3l10-3V70L52 55.3z"/><path fill="#f0b97d" d="M72 79l50.5-15L72 49.5z"/><path fill="#deab73" d="M72 79V49.5L21.8 64.2z"/><g><path fill="#ffd5a6" d="M72 49.7l-49 15-12.6-32.8 49-15.2z"/><path fill="#fece99" d="M10.4 32L23 64.5l-.8-.2-.3.3L9.5 32.3l.8-.4"/></g><g><path fill-opacity=".2" fill="#494949" d="M122.4 124c-.3-10.2 0-31.6 0-31.6L149 100c2.8 1 5.7 1.6 8.5 2.6v.3"/><path d="M122.2 64.2l-.7.2 12.3-32.7 1 .4-12.3 32.5-.3-.3" fill="#ebbf8d"/><path d="M72 49l12-32 49.8 14.7-12.3 32.7-49.8-14.7.3-.7" fill="#ffd6a8"/></g><g><path fill-opacity=".2" fill="#494949" d="M59.5 99.3C46.8 96 21.7 87.7 21.7 87.7V65.6L72 80.4c-4 6.7-9 13.5-12.5 19"/><path fill="#ffd6a8" d="M0 55l.6-1.3 19 5.6 1.3.4 8.8 2.6h.3l21 6.2-.5 1.3L0 55"/><path fill="#9e8160" d="M0 55l50.6 15 21.8 10.6-20.2-6-10-2.8-20-6L0 55.2"/><path fill="#ebbf8d" d="M72.3 80.4L50.5 69.8l.5-1.3 18.3 9 2.3 1 .7.4v1.4"/><path fill="#9e8160" d="M72.2 80.4l-20-6-10-2.8-20.3-6-1.3-.5L9 59.4c-2.4-1-4.6-2.2-7-3.3-.3-.2-.7-.3-1-.6l49.5 14.4 21.7 10.6"/><path fill-opacity=".2" fill="#494949" d="M72.2 80.4L50.5 69.8v-.2c1.3.5 2.5 1.2 3.7 1.8l7.8 3.8c2.3 1.2 4.7 2 7 3.4 1 .6 2.3 1 3.2 1.8"/></g><g><path fill-opacity=".2" fill="#494949" d="M109.6 120.8L72.2 80.4l50.2-14.6V117l-12.8 3.8M122.4 111.2l38 5 1 1.5-39 10.7"/><path d="M93.2 68.6l21-6 .2-.2 9-2.6 1-.4 19-5.5.6 1.2L93.7 70l-.5-1.4" fill="#ffd5a6"/><path d="M93.2 68.6l.5 1.3L72 80.5V79l.5-.3 2.4-1.2 18.2-9" fill="#fece99"/><path d="M93.7 70L144 55l-21.8 10.6-20 6-10.2 3-20 5.8L93.6 70" fill="#9e8160"/><path d="M72 80.6l-.3-.6h.2v.6" fill="#fece99"/><path d="M125.8 64l15.4-7.5-12 6-3.4 1.6m15.8-7.6l.3-.2c-.2 0-.3 0-.4.2M72.2 80.4c2.6-1.5 5.4-2.7 8-4 1.6-1 3.2-1.7 4.8-2.4 3-1.3 5.7-3 8.6-4.2L72.3 80.5" fill-opacity=".2" fill="#494949"/><path d="M72.2 80.5l21.5-10.6L142 55.7h.2c0 .2-.2.3-.3.4l-.4.2h-.4L125.7 64l-1.5.8-2 1-20.2 6-10 3-19.8 5.7" fill="#9e8160"/></g></svg>