<svg xmlns="http://www.w3.org/2000/svg" width="164" height="164" viewBox="0 0 164 164"><path fill="#ebbf8d" d="M72 49.5L21.8 64.2v68L72 146.7v.2l50.4-15V64L72 49.5z"/><path fill="#fece99" d="M21.8 64.2L72 79v67.9l-50.2-14.7z"/><path fill="#ffd3a3" d="M72 79l50.5-15L72 49.5 21.8 64.2z"/><path fill-opacity=".2" fill="#494949" d="M122.4 131.853v-21.9l15.7 4.6v.2l-3.5 4-11.8 12.9-.3.2"/><path fill="#e8e8e8" d="M108.5 97l-21.2 6.3V80l21.2-6v23"/><path fill="#367dbc" d="M107 76.188l-18.188 5.406V101L107 95.594V76.188zm-1 1.906v5.094L90 88v-5.188l16-4.718zm-1.53 1.28a2.494 2.494 0 0 0-.376.095l-.53.155v3.344l.53-.157c.478-.146 1.094-.377 1.094-1.532v-.968c0-.864-.345-.99-.72-.937zm-1.282.376l-1.25.375v3.313l1.25-.376v-.374l-.75.218V81.75l.562-.156v-.406l-.563.187v-1l.75-.22v-.405zm1.218.03c.18.02.25.22.25.69v1.03c0 .624-.103.795-.47.906l-.124.063v-2.626l.126-.03c.09-.03.158-.04.218-.033zm-2.812.44l-.53.186-.314 1.156-.313-.968-.53.156.593 1.47-.594 1.843.5-.157.313-1.156h.03l.312.97.532-.157-.625-1.5.624-1.844zm-2.53.78c-.092.005-.177.04-.25.063-.313.094-.814.342-.814 1.343v1.156c0 .998.49.974.813.876.29-.088.812-.39.812-1.376v-1.156c0-.763-.29-.92-.563-.906zm-.25.438c.197-.06.31.042.31.468v1.53c0 .414-.113.566-.31.626-.206.062-.283-.056-.283-.468v-1.5c0-.426.078-.595.282-.656zm-1.564.218c-.202-.04-.462.026-.688.094l-.53.156v3.344l.53-.156c.566-.172 1.094-.464 1.094-1.188v-.156c0-.395-.17-.633-.5-.594.224-.122.438-.427.438-.78v-.19c0-.347-.142-.49-.344-.53zm-1.563.375l-1.562.47v.406l.53-.187v2.936l.5-.156v-2.906l.532-.188v-.375zm1.157.032c.173.012.25.175.25.407v.124c0 .31-.2.48-.47.562l-.093.03v-1.06l.095-.032a.617.617 0 0 1 .22-.03zm-3.063.532l-.5.156v3.313l.5-.126v-3.343zm-1.405.47a.859.859 0 0 0-.344.03c-.316.096-.843.373-.843 1.375v1.155c0 .998.484.978.72.906.225-.067.404-.213.53-.5l.032.282.343-.093v-1.69l-.75.22v.344l.25-.063v.407c0 .32-.09.62-.313.688-.212.064-.313-.056-.313-.47v-1.5c0-.425.1-.59.313-.655.193-.058.313.105.313.47v.155L92.72 84c.026-.152.03-.264.03-.406 0-.29-.094-.51-.375-.53zm4.53.405c.174.01.22.14.22.374v.25c0 .31-.17.512-.438.594l-.156.062v-1.22l.157-.03a.623.623 0 0 1 .22-.03zM106 84.812v9.593L90 99v-9.5l16-4.688zm-2.156 2.656a.97.97 0 0 0-.937.874l-2 .656c-.145-.286-.46-.403-.812-.28-.42.143-.702.592-.625 1a.626.626 0 0 0 .155.343l-1 1.624-2.094.72.782-1.282a.757.757 0 0 0 .407-.03c.418-.146.7-.595.624-1-.077-.408-.488-.646-.906-.5-.42.143-.703.623-.626 1.03a.698.698 0 0 0 .188.344l-1 1.593-4.03 1.406.06.374.72-.25 1.438.78c-.045.132-.088.305-.063.44.077.405.487.58.906.436a.923.923 0 0 0 .626-.813l1.188-.406c.144.295.487.437.844.314a.962.962 0 0 0 .624-.813l1.126-.405a.694.694 0 0 0 .843.344c.42-.146.703-.626.626-1.032-.077-.407-.487-.614-.906-.47a.902.902 0 0 0-.594.782l-1.156.406c-.148-.28-.495-.4-.844-.28a.926.926 0 0 0-.344.186c-.14.135-.204.204-.25.376a.642.642 0 0 0-.03.187v.03l-1.188.407c-.156-.264-.505-.398-.844-.28a.787.787 0 0 0-.344.218l-1.156-.594 5.188-1.75s.34-.112.468-.22c.136-.11.313-.467.313-.467l.78-1.25a.84.84 0 0 0 .375-.032.979.979 0 0 0 .625-.813l2-.688a.65.65 0 0 0 .813.313c.418-.145.702-.593.624-1a.63.63 0 0 0-.593-.53z"/><path fill="#f7f7f7" fill-opacity=".4" d="M92 55.3L41.7 70v17.4l10 3V73l50.5-14.8-10.2-3z"/><path fill="#f0b97d" d="M72 79l50.5-15L72 49.5z"/><path fill="#deab73" d="M72 79V49.5L21.8 64.2z"/><g><path d="M22.5 64.7l-21.3-23L51.5 27l20.8 22.4z" fill="#ffd5a6"/><path d="M22 65.4L.6 42.8l.5-1 21.5 22.8z" fill="#fece99"/></g><g><path fill-opacity=".2" fill="#494949" d="M122.4 124c-.3-10.2 0-31.6 0-31.6L149 100c2.8 1 5.7 1.6 8.5 2.6v.3"/><path d="M122.2 64.2l-.7.2 12.3-32.7 1 .4-12.3 32.5-.3-.3" fill="#ebbf8d"/><path d="M72 49l12-32 49.8 14.7-12.3 32.7-49.8-14.7.3-.7" fill="#ffd6a8"/></g><g><path fill-opacity=".2" fill="#494949" d="M72 79L21.8 64.2v55l38 11 11.4-48zM11.7 127.7v-.2l10-4v7.2z"/><path d="M22 64l.6.3 49 14.3.6.3L50.4 102 0 87.5l21.6-23 .3-.4" fill="#ffd8ac"/><path d="M72.2 80l.5-.2-.5.6V80" fill="#ebbf8d"/><path d="M0 87.5l50.4 14.7.5 1L22 95 .5 88.6l-.5-1" fill="#d9b083"/><path d="M51 103.3l-.6-1 21.8-23.4v1.4l-21.3 23" fill="#ebbf8d"/><path d="M72.7 80h-.2l.2-.2" fill-opacity=".2" fill="#494949"/></g><g><path fill-opacity=".2" fill="#494949" d="M72.2 80.4l50.2-14.7v10l-29 8.3z"/><path fill="#9e8160" d="M135 40L84.5 54.7l-2.5 5-10 20.5.3.2h.2l49.7-14.6h.2l1-2.3 9-18.4 2.5-5z"/><path fill="#fece99" d="M84.6 54.7l-2.5 5-10 20.8v-1l-.7-.3.3-.5.4-1L83.7 54v-.3l1 1"/><path fill="#ffd5a6" d="M135 40L84.5 54.7l-1-1h.8L134 39l1 1"/><path fill="#f7f7f7" fill-opacity=".4" d="M82 59.8l2.6-5L135 40l-2.6 5L82 60"/></g></svg>