<svg xmlns="http://www.w3.org/2000/svg" width="164" height="164" viewBox="0 0 164 164"><path fill="#ebbf8d" d="M72 49.5L21.8 64.2v68L72 146.7v.2l50.4-15V64L72 49.5z"/><path fill="#fece99" d="M21.8 64.2L72 79v67.9l-50.2-14.7z"/><path fill="#ffd3a3" d="M72 79l50.5-15L72 49.5 21.8 64.2z"/><path fill-opacity=".2" fill="#494949" d="M122.4 131.853v-21.9l15.7 4.6v.2l-3.5 4-11.8 12.9-.3.2"/><path fill="#73371e" d="M63.656 119.695v.03l.094.025-.094-.055zm0 .03l-10.593-3.27v14.5l10.593 3.052v-14.28zm-.906.75v12.092l-9-2.706v-12l9 2.614zm-11.188-4.496l-10.624-3.257v14.5l10.624 3.256v-14.501zM50.75 117v12l-9-2.705v-12l9 2.706zm9.688 6.206a1.128 1.128 0 0 0-.376-.16c-.554-.13-1 .2-1 .756 0 .367.204.74.5.982v.156c0 .5-.5.873-1 .755-.414-.097-.742-.106-1-.026v-2.345c.297-.102.5-.37.5-.737 0-.554-.445-1.114-1-1.245-.554-.13-1 .2-1 .755 0 .367.204.74.5.982v5.812l1 .246c-.004-.804-.004-1.56 0-2.375.15-.145.618-.158 1-.068 1 .235 2-.54 2-1.54v-.157c.297-.102.5-.37.5-.737 0-.415-.265-.82-.624-1.054zm-.188.42c.18.12.313.323.313.528a.391.391 0 0 1-.5.393c-.274-.064-.5-.333-.5-.607 0-.273.226-.457.5-.393.068.016.127.04.187.08zm-3-1.704c.18.12.313.323.313.528a.392.392 0 0 1-.5.393c-.274-.064-.5-.365-.5-.638s.226-.426.5-.362c.068.016.127.04.187.08zm-17.688-9.415l-10.624-3.257v14.5l10.625 3.257v-14.5zm7 4.966l-.968 8.43.437.257.97-8.43-.438-.257zm-7.812-4.257v12.125l-9-2.705v-12l9 2.58zm6.406 5.803l-1.937.234v.406l1.936 2.516v-.407l-1.687-2.182 1.686-.162v-.407zm2.063 2.745v.407l1.718 2.168-1.72.144v.406l1.97-.215v-.375l-1.97-2.535zm-12.47-7.217a2.42 2.42 0 0 0-.438-.164c-1.29-.384-2.352.346-2.374 1.54v5.343l1.875.635.124-2.926c.047-.204.15-.322.376-.248.228.074.33.265.374.502v2.937l2 .647v-5.344c-.094-1.215-.93-2.408-1.937-2.922zm-.375.998c.608.198 1.094.85 1.094 1.456 0 .608-.487.96-1.095.762-.608-.197-1.094-.85-1.094-1.456 0-.608.487-.96 1.095-.762zm.5.575c-.06-.043-.116-.055-.188-.078-.284-.092-.53.03-.53.312 0 .282.246.627.53.72.285.092.5-.08.5-.362a.787.787 0 0 0-.312-.59z"/><path fill="#f7f7f7" fill-opacity=".4" d="M52 55.3l-10 3L92.2 73v17.3l10-3V70L52 55.3z"/><path fill="#f0b97d" d="M72 79l50.5-15L72 49.5z"/><path fill="#deab73" d="M72 79V49.5L21.8 64.2z"/><g><path fill="#ffd5a6" d="M72 49.7l-49 15-12.6-32.8 49-15.2z"/><path fill="#fece99" d="M10.4 32L23 64.5l-.8-.2-.3.3L9.5 32.3l.8-.4"/></g><g><path fill-opacity=".2" fill="#494949" d="M122.4 124c-.3-10.2 0-31.6 0-31.6L149 100c2.8 1 5.7 1.6 8.5 2.6v.3"/><path d="M122.2 64.2l-.7.2 12.3-32.7 1 .4-12.3 32.5-.3-.3" fill="#ebbf8d"/><path d="M72 49l12-32 49.8 14.7-12.3 32.7-49.8-14.7.3-.7" fill="#ffd6a8"/></g><g><path fill-opacity=".2" fill="#494949" d="M72 79L21.8 64.2v55l38 11 11.4-48zM11.7 127.7v-.2l10-4v7.2z"/><path d="M22 64l.6.3 49 14.3.6.3L50.4 102 0 87.5l21.6-23 .3-.4" fill="#ffd8ac"/><path d="M72.2 80l.5-.2-.5.6V80" fill="#ebbf8d"/><path d="M0 87.5l50.4 14.7.5 1L22 95 .5 88.6l-.5-1" fill="#d9b083"/><path d="M51 103.3l-.6-1 21.8-23.4v1.4l-21.3 23" fill="#ebbf8d"/><path d="M72.7 80h-.2l.2-.2" fill-opacity=".2" fill="#494949"/></g><g><path fill-opacity=".2" fill="#494949" d="M72.2 80.4l50.2-14.7v10l-29 8.3z"/><path fill="#9e8160" d="M135 40L84.5 54.7l-2.5 5-10 20.5.3.2h.2l49.7-14.6h.2l1-2.3 9-18.4 2.5-5z"/><path fill="#fece99" d="M84.6 54.7l-2.5 5-10 20.8v-1l-.7-.3.3-.5.4-1L83.7 54v-.3l1 1"/><path fill="#ffd5a6" d="M135 40L84.5 54.7l-1-1h.8L134 39l1 1"/></g></svg>