<svg xmlns="http://www.w3.org/2000/svg" width="164" height="164" viewBox="0 0 164 164"><path d="M81.8 5L5 28.4v107.4L81.8 159l77-23.8L159 28z" fill="#fff"/><path fill="#c2c8fa" d="M82.03 37.3L42.1 49.57V106l39.93 12.13 39.94-11.87h.12V49.8L82.02 37.45v-.15z"/><path fill="#fff" d="M98.47 52.43c4.72 0 8.73 3.7 8.72 8.43-.02 4.73-4 8.73-8.73 8.72-1.17 0-2.18-.44-3.2-.87l-21.8 21.8c.43 1.03.88 2.04.88 3.2 0 3.6-2.4 6.6-5.53 7.86l-.06 12.7-6.9-2.17v-10.84c-2.83-1.4-4.67-4.2-4.67-7.56 0-3.37 1.8-6.16 4.64-7.54V68.42c-2.84-1.4-4.66-4.17-4.65-7.55 0-4.73 3.7-8.44 8.42-8.44 4.73 0 8.72 3.7 8.72 8.43a8.45 8.45 0 0 1-5.23 7.85v16.3l21.23-21.52c-.3-.86-.3-1.66-.3-2.62 0-4.72 3.7-8.43 8.44-8.43z"/><path fill="#7987f4" color="#000" d="M81.2 0a5 5 0 0 0-1 .2L3.5 23.6A5 5 0 0 0 0 28.4v107.2a5 5 0 0 0 3.7 5l76.7 23.2a5 5 0 0 0 3 0l77-23.7a5 5 0 0 0 3.4-4.7L164 28a5 5 0 0 0-3.7-5L83.3.3a5 5 0 0 0-2-.2zm.6 10.4l72 21.3v99.8l-72 22L10 132V32l72-21.5z"/></svg>