<svg xmlns="http://www.w3.org/2000/svg" width="164" height="164" viewBox="0 0 164 164"><path d="M81.8 5L5 28.4v107.4L81.8 159l77-23.8L159 28z" fill="#fff"/><path fill="none" stroke="#b4c0c9" stroke-width="4.3" stroke-linecap="round" stroke-linejoin="round" d="M5 31l77 24.3m0 0l77-24.7M81.8 55.2v102"/><path fill="#fff" d="M82.03 30L42.1 42.27V98.7l39.93 12.13 39.94-11.87h.12V42.5L82.02 30.15V30z"/><path fill="#d9dfe3" stroke="#b4c0c9" stroke-width="4.3" d="M82.03 30L42.1 42.25v56.47l17.52 5.3V99c-3.38-1.68-5.6-5.03-5.6-9.06.02-4.06 2.2-7.4 5.6-9.06v-15.3c-3.4-1.66-5.6-5-5.6-9.05.02-5.67 4.47-10.13 10.14-10.12 5.67 0 10.47 4.43 10.47 10.1 0 4.27-2.58 7.9-6.3 9.44v13.53l19.48-19.8c-.33-1.05-.33-2.02-.33-3.17 0-5.67 4.42-10.1 10.1-10.1 5.66.02 10.47 4.43 10.46 10.1 0 5.67-4.8 10.48-10.47 10.47-1.4 0-2.6-.52-3.8-1.03L73.58 86.1c.5 1.2 1.03 2.43 1.03 3.84 0 4.3-2.9 7.87-6.63 9.4v7.22l14.03 4.25 39.94-11.83h.12V42.5L82.02 30.12V30z"/><path fill="#8799A7" color="#000" d="M81.2 0a5 5 0 0 0-1 .2L3.5 23.6A5 5 0 0 0 0 28.4v107.2a5 5 0 0 0 3.7 5l76.7 23.2a5 5 0 0 0 3 0l77-23.7a5 5 0 0 0 3.4-4.7L164 28a5 5 0 0 0-3.7-5L83.3.3a5 5 0 0 0-2-.2zm.6 10.4l72 21.3v99.8l-72 22L10 132V32l72-21.5z"/></svg>