<svg xmlns="http://www.w3.org/2000/svg" width="164" height="164" viewBox="0 0 164 164"><path d="M81.8 5L5 28.4v107.4L81.8 159l77-23.8L159 28z" fill="#fff"/><path fill="none" stroke="#ffded5" stroke-width="4.3" stroke-linecap="round" stroke-linejoin="round" d="M5 31l77 24.3m0 0l77-24.7M81.8 55.2v102"/><path fill="#ffded5" d="M82.03 30L42.1 42.27V98.7l39.93 12.13 39.94-11.87h.12V42.5L82.02 30.15V30z"/><path fill="#fff" d="M103.94 50.43c-4.98 0-9.02 4.08-9.02 9.1 0 2.76 1.2 5.28 3.14 6.95l-9.53 22.2-3.6 3.54c-1.04-.58-2.25-1-3.5-1-2.38.12-4.77 1.46-5.5 2.82l-9.55-2.66V69.9c3.3-1.36 5.63-4.68 5.63-8.5 0-5-4-9.06-8.98-9.06S54 56.4 54 61.4c0 4.26 2.84 7.86 6.75 8.86v23l.1-.03 13.8 4.3c-.03.27-.12.5-.12.77 0 .37.05.77.1 1.12l-12.7 5.6 6.24 1.93 8.26-3.67c1.4 1.3 3.73 2.08 5.24 2.08 3.87 0 6.92-3.16 6.86-7.06 0-.67-.18-1.3-.36-1.9l5.35-6.25-.06-.03 9.36-21.62c.4.05.72.1 1.12.1 4.98 0 9.02-4.04 9.02-9.07 0-5.02-4.04-9.1-9.02-9.1z"/><path fill="#494949" fill-opacity=".07" d="M122.1 98.9L82.02 86.4V30.1l40.06 12.37V98.9z"/><path fill="#494949" fill-opacity=".15" d="M42.1 98.7l39.93-12.3V30.08L42.1 42.27z"/><path fill="#ff9f86" color="#000" d="M81.2 0a5 5 0 0 0-1 .2L3.5 23.6A5 5 0 0 0 0 28.4v107.2a5 5 0 0 0 3.7 5l76.7 23.2a5 5 0 0 0 3 0l77-23.7a5 5 0 0 0 3.4-4.7L164 28a5 5 0 0 0-3.7-5L83.3.3a5 5 0 0 0-2-.2zm.6 10.4l72 21.3v99.8l-72 22L10 132V32l72-21.5z"/></svg>