<svg xmlns="http://www.w3.org/2000/svg" width="164" height="164" viewBox="0 0 164 164"><path d="M81.8 5L5 28.4v107.4L81.8 159l77-23.8L159 28z" fill="#fff"/><path fill="none" stroke="#ffded5" stroke-width="4.3" stroke-linecap="round" stroke-linejoin="round" d="M5 31l77 24.3m0 0l77-24.7M81.8 55.2v102"/><path fill="#fff" d="M120.58 77.86a38.5 38.5 0 0 1-77 0 38.5 38.5 0 1 1 77 0z"/><path fill="#fff8f6" stroke="#ffded5" stroke-width="4.3" d="M82.02 39.38c-21.12 0-38.17 17.12-38.17 38.25 0 14.72 8.3 27.53 20.48 33.93v-37.8c-2.8-1.64-4.7-4.7-4.7-8.18 0-5.3 4.2-9.53 9.42-9.53 5.23 0 9.43 4.24 9.43 9.53 0 3.5-1.9 6.54-4.7 8.18v22.47c2.42-1.34 5.5-2.08 9.42-2.08 4.72 0 9.43-4.76 9.43-9.52V83.3c-2.8-1.65-4.7-4.7-4.7-8.2 0-5.28 4.2-9.52 9.42-9.6 5.23-.07 9.43 4.17 9.43 9.45 0 3.5-1.9 6.55-4.7 8.2v1.33c0 9.52-9.45 19.05-18.88 19.05-3.6 0-8.03 1.4-9.43 3.12-.02 2.9 0 5.57 0 8.34 2.67.58 5.4.88 8.25.88 21.12 0 38.32-17.12 38.32-38.25s-17.2-38.25-38.32-38.25z"/><path fill="#ff9f86" color="#000" d="M81.2 0a5 5 0 0 0-1 .2L3.5 23.6A5 5 0 0 0 0 28.4v107.2a5 5 0 0 0 3.7 5l76.7 23.2a5 5 0 0 0 3 0l77-23.7a5 5 0 0 0 3.4-4.7L164 28a5 5 0 0 0-3.7-5L83.3.3a5 5 0 0 0-2-.2zm.6 10.4l72 21.3v99.8l-72 22L10 132V32l72-21.5z"/></svg>