<svg xmlns="http://www.w3.org/2000/svg" width="646" height="164" viewBox="0 0 646 164"><path d="M81.8 5L5 28.4v107.4L81.8 159l77-23.8L159 28z" fill="#fff"/><path fill="#8799A7" d="M219.2 136.4c7.2 0 12.3-3.2 16.4-11l1.8 10h10.8v-54h-24v10.5h8.2v14c0 10-3 18-10.2 18-6.8 0-10-4-10-17.2V58.4c0-13.7 3.3-18 10-18 6.2 0 9.6 6 9.6 17.6v5h13c.7-4.5 1.4-8 1.4-12.7 0-12.3-6-22.5-23.5-22.5-10.2 0-27.4 2.8-27.4 35v38c0 32 16.4 35.8 24 35.8m44-1.2h16v-107h-16v107m44.3 0h16.2v-94h17v-13h-50.4v13h17.2v94m44.5 0h17c18.2 0 34.4-4 34.4-27.3v-5.5c0-12.7-5.4-21.2-16-23V79c7.2-2 14.3-9.8 14.3-21v-5.2c0-22.4-18.8-24.3-33.3-24.3H352v107m16-61.2v-34h3c10.8 0 14.6 5.7 14.6 15.6v4.3c0 10-5.8 14-14.5 14h-3m0 49.7V85.6h4.6c10.6 0 14.3 5.6 14.3 15.6v8.3c0 10-5.8 14.5-14.4 14.5H368m73.3 12.3c9.3 0 26.3-4 26.3-35.7V62.8c0-32.8-16.7-35.2-26.3-35.2-10 0-26.7 3-26.7 35v38c0 32 16.3 35.7 26.7 35.7m0-12.2c-6.6 0-9.7-4-9.7-17V58c0-13.6 3-18 9.7-18 6.3 0 9.4 4.4 9.4 18v49c0 13-3 17-9.4 17m34.6 11.4h16l10.6-34.3h1l10.2 34.4h16.7L511 81.6l19.5-53h-16.7l-10 34h-.6l-10-34H476l19.4 53-19.5 53.8m65.7 0H582v-12.8h-24V86h18V73.4h-18v-32h23.3V28.5h-39.6v107m52 0h17c15.3 0 35-1 35-38v-31c0-37-19.7-38-35.2-38h-16.8v107M610 124V40.4h4c11.8 0 14.7 5.2 14.7 25.3v33.2c0 20-3 25.3-14.6 25.3h-4"/><path fill="#fff" d="M82.03 37.3L42.1 49.57V106l39.93 12.13 39.94-11.87h.12V49.8L82.02 37.45v-.15z"/><path fill="#d9dfe3" stroke="#b4c0c9" stroke-width="4.3" d="M82.03 37.3L42.1 49.55v56.47l17.52 5.3v-5.02c-3.38-1.68-5.6-5.03-5.6-9.06.02-4.06 2.2-7.4 5.6-9.06v-15.3c-3.4-1.66-5.6-5-5.6-9.05.02-5.67 4.47-10.13 10.14-10.12 5.67 0 10.47 4.43 10.47 10.1 0 4.27-2.58 7.9-6.3 9.44v13.53l19.48-19.8c-.33-1.05-.33-2.02-.33-3.17 0-5.67 4.42-10.1 10.1-10.1 5.66.02 10.47 4.43 10.46 10.1 0 5.67-4.8 10.48-10.47 10.47-1.4 0-2.6-.52-3.8-1.03L73.58 93.4c.5 1.2 1.03 2.43 1.03 3.84 0 4.3-2.9 7.87-6.63 9.4v7.22l14.03 4.25 39.94-11.83h.12V49.8L82.02 37.42v-.12z"/><path fill="#8799A7" color="#000" d="M81.2 0a5 5 0 0 0-1 .2L3.5 23.6A5 5 0 0 0 0 28.4v107.2a5 5 0 0 0 3.7 5l76.7 23.2a5 5 0 0 0 3 0l77-23.7a5 5 0 0 0 3.4-4.7L164 28a5 5 0 0 0-3.7-5L83.3.3a5 5 0 0 0-2-.2zm.6 10.4l72 21.3v99.8l-72 22L10 132V32l72-21.5z"/></svg>