<svg xmlns="http://www.w3.org/2000/svg" width="164" height="164" viewBox="0 0 164 164"><path d="M81.8 5L5 28.4v107.4L81.8 159l77-23.8L159 28z" fill="#fff"/><path fill="none" stroke="#262626" stroke-width="4.3" stroke-linecap="round" stroke-linejoin="round" d="M5 31l77 24.3m0 0l77-24.7M81.8 55.2v102"/><path fill="#fff" d="M120.58 77.86a38.5 38.5 0 0 1-77 0 38.5 38.5 0 1 1 77 0z"/><path fill="gray" stroke="#262626" stroke-width="4.3" d="M82.02 39.38c-21.12 0-38.17 17.12-38.17 38.25 0 14.72 8.3 27.53 20.48 33.93v-37.8c-2.8-1.64-4.7-4.7-4.7-8.18 0-5.3 4.2-9.53 9.42-9.53 5.23 0 9.43 4.24 9.43 9.53 0 3.5-1.9 6.54-4.7 8.18v22.47c2.42-1.34 5.5-2.08 9.42-2.08 4.72 0 9.43-4.76 9.43-9.52V83.3c-2.8-1.65-4.7-4.7-4.7-8.2 0-5.28 4.2-9.52 9.42-9.6 5.23-.07 9.43 4.17 9.43 9.45 0 3.5-1.9 6.55-4.7 8.2v1.33c0 9.52-9.45 19.05-18.88 19.05-3.6 0-8.03 1.4-9.43 3.12-.02 2.9 0 5.57 0 8.34 2.67.58 5.4.88 8.25.88 21.12 0 38.32-17.12 38.32-38.25s-17.2-38.25-38.32-38.25z"/><path color="#000" d="M81.2.04a5.05 5.04 0 0 0-.96.16L3.52 23.57A5.05 5.04 0 0 0 0 28.37v107.25a5.05 5.04 0 0 0 3.68 4.96l76.72 23.2a5.05 5.04 0 0 0 2.88 0l77.04-23.68a5.05 5.04 0 0 0 3.52-4.8L164 28.05a5.05 5.04 0 0 0-3.7-4.96L83.3.2a5.05 5.04 0 0 0-2.1-.16zm.64 10.4l72.07 21.3-.13 99.72-72.07 22.1-71.6-21.62V32.06l71.75-21.6z"/></svg>