<svg xmlns="http://www.w3.org/2000/svg" width="164" height="164" viewBox="-49.199999999999996 -49.199999999999996 262.4 262.4"><path fill="#e1e8ed" d="M-49.2-49.2h262.4v262.4H-49.2z"/><path d="M81.8 5L5 28.4v107.4L81.8 159l77-23.8L159 28z" fill="#fff"/><path fill="#8799A7" color="#000" d="M81.2.04a5.05 5.04 0 0 0-.96.16L3.52 23.57A5.05 5.04 0 0 0 0 28.37v107.25a5.05 5.04 0 0 0 3.68 4.96l76.72 23.2a5.05 5.04 0 0 0 2.88 0l77.04-23.68a5.05 5.04 0 0 0 3.52-4.8L164 28.05a5.05 5.04 0 0 0-3.7-4.96L83.3.2a5.05 5.04 0 0 0-2.1-.16zm.64 10.4l72.07 21.3-.13 99.72-72.07 22.1-71.6-21.62V32.06l71.75-21.6z"/></svg>