<svg xmlns="http://www.w3.org/2000/svg" width="164" height="164" viewBox="-49.199999999999996 -49.199999999999996 262.4 262.4"><path fill="#e1e8ed" d="M-49.2-49.2h262.4v262.4H-49.2z"/><path d="M81.8 5L5 28.4v107.4L81.8 159l77-23.8L159 28z" fill="#fff"/><path fill="#b2bfc8" d="M82.03 37.3L42.1 49.57V106l39.93 12.13 39.94-11.87h.12V49.8L82.02 37.45v-.15z"/><path fill="#fff" d="M103.94 57.73c-4.98 0-9.02 4.08-9.02 9.1 0 2.76 1.2 5.28 3.14 6.95l-9.53 22.2-3.6 3.54c-1.04-.58-2.25-1-3.5-1-2.38.12-4.77 1.46-5.5 2.82l-9.55-2.66V77.2c3.3-1.36 5.63-4.68 5.63-8.5 0-5-4-9.06-8.98-9.06S54 63.7 54 68.7c0 4.26 2.84 7.86 6.75 8.86v23l.1-.03 13.8 4.3c-.03.27-.12.5-.12.77 0 .37.05.77.1 1.12l-12.7 5.6 6.24 1.93 8.26-3.67c1.4 1.3 3.73 2.08 5.24 2.08 3.87 0 6.92-3.16 6.86-7.06 0-.67-.18-1.3-.36-1.9l5.35-6.25-.06-.03 9.36-21.62c.4.05.72.1 1.12.1 4.98 0 9.02-4.04 9.02-9.07 0-5.02-4.04-9.1-9.02-9.1z"/><path fill="none" d="M122.1 106.2L82.02 93.7V37.4l40.06 12.37v56.43z"/><path fill="none" d="M42.1 106l39.93-12.3V37.38L42.1 49.57z"/><path fill="#8799A7" color="#000" d="M81.2.04a5.05 5.04 0 0 0-.96.16L3.52 23.57A5.05 5.04 0 0 0 0 28.37v107.25a5.05 5.04 0 0 0 3.68 4.96l76.72 23.2a5.05 5.04 0 0 0 2.88 0l77.04-23.68a5.05 5.04 0 0 0 3.52-4.8L164 28.05a5.05 5.04 0 0 0-3.7-4.96L83.3.2a5.05 5.04 0 0 0-2.1-.16zm.64 10.4l72.07 21.3-.13 99.72-72.07 22.1-71.6-21.62V32.06l71.75-21.6z"/></svg>