<svg xmlns="http://www.w3.org/2000/svg" width="164" height="164" viewBox="0 0 164 164"><path d="M81.8 5L5 28.4v107.4L81.8 159l77-23.8L159 28z" fill="#fff"/><path fill="#fff" d="M82.03 37.3L42.1 49.57V106l39.93 12.13 39.94-11.87h.12V49.8L82.02 37.45v-.15z"/><path fill="#fbeed9" stroke="#f0b965" stroke-width="4.3" d="M82.03 37.3L42.1 49.55v56.47l17.52 5.3v-5.02c-3.38-1.68-5.6-5.03-5.6-9.06.02-4.06 2.2-7.4 5.6-9.06v-15.3c-3.4-1.66-5.6-5-5.6-9.05.02-5.67 4.47-10.13 10.14-10.12 5.67 0 10.47 4.43 10.47 10.1 0 4.27-2.58 7.9-6.3 9.44v13.53l19.48-19.8c-.33-1.05-.33-2.02-.33-3.17 0-5.67 4.42-10.1 10.1-10.1 5.66.02 10.47 4.43 10.46 10.1 0 5.67-4.8 10.48-10.47 10.47-1.4 0-2.6-.52-3.8-1.03L73.58 93.4c.5 1.2 1.03 2.43 1.03 3.84 0 4.3-2.9 7.87-6.63 9.4v7.22l14.03 4.25 39.94-11.83h.12V49.8L82.02 37.42v-.12z"/><path fill="#e89920" color="#000" d="M81.2.04a5.05 5.04 0 0 0-.96.16L3.52 23.57A5.05 5.04 0 0 0 0 28.37v107.25a5.05 5.04 0 0 0 3.68 4.96l76.72 23.2a5.05 5.04 0 0 0 2.88 0l77.04-23.68a5.05 5.04 0 0 0 3.52-4.8L164 28.05a5.05 5.04 0 0 0-3.7-4.96L83.3.2a5.05 5.04 0 0 0-2.1-.16zm.64 10.4l72.07 21.3-.13 99.72-72.07 22.1-71.6-21.62V32.06l71.75-21.6z"/></svg>