<svg xmlns="http://www.w3.org/2000/svg" width="164" height="164" viewBox="0 0 164 164"><path d="M81.8 5L5 28.4v107.4L81.8 159l77-23.8L159 28z" fill="#fff"/><path fill="#e8d2ff" d="M82.03 37.3L42.1 49.57V106l39.93 12.13 39.94-11.87h.12V49.8L82.02 37.45v-.15z"/><path fill="#fff" d="M98.47 52.43c4.72 0 8.73 3.7 8.72 8.43-.02 4.73-4 8.73-8.73 8.72-1.17 0-2.18-.44-3.2-.87l-21.8 21.8c.43 1.03.88 2.04.88 3.2 0 3.6-2.4 6.6-5.53 7.86l-.06 12.7-6.9-2.17v-10.84c-2.83-1.4-4.67-4.2-4.67-7.56 0-3.37 1.8-6.16 4.64-7.54V68.42c-2.84-1.4-4.66-4.17-4.65-7.55 0-4.73 3.7-8.44 8.42-8.44 4.73 0 8.72 3.7 8.72 8.43a8.45 8.45 0 0 1-5.23 7.85v16.3l21.23-21.52c-.3-.86-.3-1.66-.3-2.62 0-4.72 3.7-8.43 8.44-8.43z"/><path fill="#c086ff" color="#000" d="M81.2.04a5.05 5.04 0 0 0-.96.16L3.52 23.57A5.05 5.04 0 0 0 0 28.37v107.25a5.05 5.04 0 0 0 3.68 4.96l76.72 23.2a5.05 5.04 0 0 0 2.88 0l77.04-23.68a5.05 5.04 0 0 0 3.52-4.8L164 28.05a5.05 5.04 0 0 0-3.7-4.96L83.3.2a5.05 5.04 0 0 0-2.1-.16zm.64 10.4l72.07 21.3-.13 99.72-72.07 22.1-71.6-21.62V32.06l71.75-21.6z"/></svg>