<svg xmlns="http://www.w3.org/2000/svg" width="646" height="164" viewBox="0 0 646 164"><path d="M81.8 5L5 28.4v107.4L81.8 159l77-23.8L159 28z" fill="#fff"/><path fill="#e8d2ff" d="M109.8 14.6L33 37.8v27.5L53.6 72V44.6l77-23.6-20.8-6.7z"/><path fill="#c086ff" d="M219.2 136.4c7.2 0 12.3-3.2 16.4-11l1.8 10h10.8v-54h-24v10.5h8.2v14c0 10-3 18-10.2 18-6.8 0-10-4-10-17.2V58.4c0-13.7 3.3-18 10-18 6.2 0 9.6 6 9.6 17.6v5h13c.7-4.5 1.4-8 1.4-12.7 0-12.3-6-22.5-23.5-22.5-10.2 0-27.4 2.8-27.4 35v38c0 32 16.4 35.8 24 35.8m44-1.2h16v-107h-16v107m44.3 0h16.2v-94h17v-13h-50.4v13h17.2v94m44.5 0h17c18.2 0 34.4-4 34.4-27.3v-5.5c0-12.7-5.4-21.2-16-23V79c7.2-2 14.3-9.8 14.3-21v-5.2c0-22.4-18.8-24.3-33.3-24.3H352v107m16-61.2v-34h3c10.8 0 14.6 5.7 14.6 15.6v4.3c0 10-5.8 14-14.5 14h-3m0 49.7V85.6h4.6c10.6 0 14.3 5.6 14.3 15.6v8.3c0 10-5.8 14.5-14.4 14.5H368m73.3 12.3c9.3 0 26.3-4 26.3-35.7V62.8c0-32.8-16.7-35.2-26.3-35.2-10 0-26.7 3-26.7 35v38c0 32 16.3 35.7 26.7 35.7m0-12.2c-6.6 0-9.7-4-9.7-17V58c0-13.6 3-18 9.7-18 6.3 0 9.4 4.4 9.4 18v49c0 13-3 17-9.4 17m34.6 11.4h16l10.6-34.3h1l10.2 34.4h16.7L511 81.6l19.5-53h-16.7l-10 34h-.6l-10-34H476l19.4 53-19.5 53.8m65.7 0H582v-12.8h-24V86h18V73.4h-18v-32h23.3V28.5h-39.6v107m52 0h17c15.3 0 35-1 35-38v-31c0-37-19.7-38-35.2-38h-16.8v107M610 124V40.4h4c11.8 0 14.7 5.2 14.7 25.3v33.2c0 20-3 25.3-14.6 25.3h-4"/><path fill="#c086ff" color="#000" d="M81.2.04a5.05 5.04 0 0 0-.96.16L3.52 23.57A5.05 5.04 0 0 0 0 28.37v107.25a5.05 5.04 0 0 0 3.68 4.96l76.72 23.2a5.05 5.04 0 0 0 2.88 0l77.04-23.68a5.05 5.04 0 0 0 3.52-4.8L164 28.05a5.05 5.04 0 0 0-3.7-4.96L83.3.2a5.05 5.04 0 0 0-2.1-.16zm.64 10.4l72.07 21.3-.13 99.72-72.07 22.1-71.6-21.62V32.06l71.75-21.6z"/></svg>